  0
SECTION
  2
HEADER
  9
$ACADVER
  1
AC1014
  9
$HANDSEED
  5
FFFF
  9
$MEASUREMENT
 70
     1
  0
ENDSEC
  0
SECTION
  2
TABLES
  0
TABLE
  2
VPORT
  5
8
330
0
100
AcDbSymbolTable
 70
     4
  0
VPORT
  5
2E
330
8
100
AcDbSymbolTableRecord
100
AcDbViewportTableRecord
  2
*ACTIVE
 70
     0
 10
0.0
 20
0.0
 11
1.0
 21
1.0
 12
210.0
 22
148.5
 13
0.0
 23
0.0
 14
10.0
 24
10.0
 15
10.0
 25
10.0
 16
0.0
 26
0.0
 36
1.0
 17
0.0
 27
0.0
 37
0.0
 40
341.0
 41
1.24
 42
50.0
 43
0.0
 44
0.0
 50
0.0
 51
0.0
 71
     0
 72
   100
 73
     1
 74
     3
 75
     0
 76
     0
 77
     0
 78
     0
  0
ENDTAB
  0
TABLE
  2
LTYPE
  5
5
330
0
100
AcDbSymbolTable
 70
     1
  0
LTYPE
  5
14
330
5
100
AcDbSymbolTableRecord
100
AcDbLinetypeTableRecord
  2
BYBLOCK
 70
     0
  3

 72
    65
 73
     0
 40
0.0
  0
LTYPE
  5
15
330
5
100
AcDbSymbolTableRecord
100
AcDbLinetypeTableRecord
  2
BYLAYER
 70
     0
  3

 72
    65
 73
     0
 40
0.0
  0
LTYPE
  5
16
330
5
100
AcDbSymbolTableRecord
100
AcDbLinetypeTableRecord
  2
CONTINUOUS
 70
     0
  3
Solid line
 72
    65
 73
     0
 40
0.0
  0
ENDTAB
  0
TABLE
  2
LAYER
  5
2
100
AcDbSymbolTable
 70
2
  0
LAYER
  5
50
100
AcDbSymbolTableRecord
100
AcDbLayerTableRecord
  2
0
 70
0
  6
CONTINUOUS
  0
LAYER
  5
51
100
AcDbSymbolTableRecord
100
AcDbLayerTableRecord
  2
Layer_1
 70
0
  6
CONTINUOUS
  0
ENDTAB
  0
TABLE
  2
STYLE
  5
3
330
0
100
AcDbSymbolTable
 70
     1
  0
STYLE
  5
11
330
3
100
AcDbSymbolTableRecord
100
AcDbTextStyleTableRecord
  2
STANDARD
 70
     0
 40
0.0
 41
1.0
 50
0.0
 71
     0
 42
2.5
  3
txt
  4

  0
ENDTAB
  0
TABLE
  2
VIEW
  5
6
330
0
100
AcDbSymbolTable
 70
     0
  0
ENDTAB
  0
TABLE
  2
UCS
  5
7
330
0
100
AcDbSymbolTable
 70
     0
  0
ENDTAB
  0
TABLE
  2
APPID
  5
9
330
0
100
AcDbSymbolTable
 70
     2
  0
APPID
  5
12
330
9
100
AcDbSymbolTableRecord
100
AcDbRegAppTableRecord
  2
ACAD
 70
     0
  0
ENDTAB
  0
TABLE
  2
DIMSTYLE
  5
A
330
0
100
AcDbSymbolTable
 70
     1
  0
DIMSTYLE
105
27
330
A
100
AcDbSymbolTableRecord
100
AcDbDimStyleTableRecord
  2
ISO-25
 70
     0
  3

  4

  5

  6

  7

 40
1.0
 41
2.5
 42
0.625
 43
3.75
 44
1.25
 45
0.0
 46
0.0
 47
0.0
 48
0.0
140
2.5
141
2.5
142
0.0
143
0.03937007874016
144
1.0
145
0.0
146
1.0
147
0.625
 71
     0
 72
     0
 73
     0
 74
     0
 75
     0
 76
     0
 77
     1
 78
     8
170
     0
171
     3
172
     1
173
     0
174
     0
175
     0
176
     0
177
     0
178
     0
270
     2
271
     2
272
     2
273
     2
274
     3
340
11
275
     0
280
     0
281
     0
282
     0
283
     0
284
     8
285
     0
286
     0
287
     3
288
     0
  0
ENDTAB
  0
TABLE
  2
BLOCK_RECORD
  5
1
330
0
100
AcDbSymbolTable
 70
     1
  0
BLOCK_RECORD
  5
1F
330
1
100
AcDbSymbolTableRecord
100
AcDbBlockTableRecord
  2
*MODEL_SPACE
  0
BLOCK_RECORD
  5
1B
330
1
100
AcDbSymbolTableRecord
100
AcDbBlockTableRecord
  2
*PAPER_SPACE
  0
ENDTAB
  0
ENDSEC
  0
SECTION
  2
BLOCKS
  0
BLOCK
  5
20
330
1F
100
AcDbEntity
  8
0
100
AcDbBlockBegin
  2
*MODEL_SPACE
 70
     0
 10
0.0
 20
0.0
 30
0.0
  3
*MODEL_SPACE
  1

  0
ENDBLK
  5
21
330
1F
100
AcDbEntity
  8
0
100
AcDbBlockEnd
  0
BLOCK
  5
1C
330
1B
100
AcDbEntity
 67
     1
  8
0
100
AcDbBlockBegin
  2
*PAPER_SPACE
  1

  0
ENDBLK
  5
1D
330
1B
100
AcDbEntity
 67
     1
  8
0
100
AcDbBlockEnd
  0
ENDSEC
  0
SECTION
  2
ENTITIES
  0
LWPOLYLINE
  5
100
100
AcDbEntity
  8
Layer_1
 62
7
100
AcDbPolyline
 90
5
 70
1
 10
127.441640
 20
214.883112
 30
0.0
 10
210.987502
 20
214.883112
 30
0.0
 10
210.987502
 20
170.337254
 30
0.0
 10
127.441640
 20
170.337254
 30
0.0
 10
127.441640
 20
214.883112
 30
0.0
  0
LWPOLYLINE
  5
101
100
AcDbEntity
  8
Layer_1
 62
7
100
AcDbPolyline
 90
14
 70
1
 10
60.050140
 20
169.256470
 30
0.0
 10
60.050140
 20
172.256290
 30
0.0
 10
87.050040
 20
172.256290
 30
0.0
 10
87.050040
 20
197.256318
 30
0.0
 10
60.050140
 20
197.256318
 30
0.0
 10
60.050140
 20
200.256128
 30
0.0
 10
30.050420
 20
200.256128
 30
0.0
 10
30.050420
 20
197.256318
 30
0.0
 10
3.050000
 20
197.256318
 30
0.0
 10
3.050000
 20
172.256290
 30
0.0
 10
30.050420
 20
172.256290
 30
0.0
 10
30.050420
 20
169.256470
 30
0.0
 10
60.050140
 20
169.256470
 30
0.0
 10
60.050140
 20
169.256470
 30
0.0
  0
LWPOLYLINE
  5
102
100
AcDbEntity
  8
Layer_1
 62
7
100
AcDbPolyline
 90
43
 70
1
 10
3.084566
 20
159.984679
 30
0.0
 10
3.084566
 20
139.984865
 30
0.0
 10
0.084749
 20
139.984865
 30
0.0
 10
0.084749
 20
119.985059
 30
0.0
 10
3.084566
 20
119.985059
 30
0.0
 10
3.084566
 20
99.984729
 30
0.0
 10
0.084749
 20
99.984729
 30
0.0
 10
0.084749
 20
79.984901
 30
0.0
 10
3.084566
 20
79.984901
 30
0.0
 10
3.084566
 20
59.985100
 30
0.0
 10
0.084749
 20
59.985100
 30
0.0
 10
0.084749
 20
39.984770
 30
0.0
 10
3.084566
 20
39.984770
 30
0.0
 10
3.084566
 20
19.984969
 30
0.0
 10
0.084749
 20
19.984969
 30
0.0
 10
0.084749
 20
0.084890
 30
0.0
 10
29.984731
 20
0.084890
 30
0.0
 10
29.984731
 20
3.085212
 30
0.0
 10
59.984451
 20
3.085212
 30
0.0
 10
59.984451
 20
0.084890
 30
0.0
 10
89.984687
 20
0.084890
 30
0.0
 10
89.984687
 20
19.984969
 30
0.0
 10
86.984871
 20
19.984969
 30
0.0
 10
86.984871
 20
39.984770
 30
0.0
 10
89.984687
 20
39.984770
 30
0.0
 10
89.984687
 20
59.985100
 30
0.0
 10
86.984871
 20
59.985100
 30
0.0
 10
86.984871
 20
79.984901
 30
0.0
 10
89.984687
 20
79.984901
 30
0.0
 10
89.984687
 20
99.984729
 30
0.0
 10
86.984871
 20
99.984729
 30
0.0
 10
86.984871
 20
119.985059
 30
0.0
 10
89.984687
 20
119.985059
 30
0.0
 10
89.984687
 20
139.984865
 30
0.0
 10
86.984871
 20
139.984865
 30
0.0
 10
86.984871
 20
159.984679
 30
0.0
 10
60.050081
 20
159.984679
 30
0.0
 10
60.050081
 20
156.984344
 30
0.0
 10
30.050361
 20
156.984344
 30
0.0
 10
30.050361
 20
159.984679
 30
0.0
 10
3.084566
 20
159.984679
 30
0.0
 10
3.084566
 20
159.984679
 30
0.0
 10
3.084566
 20
159.984679
 30
0.0
  0
LWPOLYLINE
  5
103
100
AcDbEntity
  8
Layer_1
 62
7
100
AcDbPolyline
 90
7
 70
1
 10
16.050183
 20
114.960039
 30
0.0
 10
73.959825
 20
114.960039
 30
0.0
 10
73.959825
 20
16.049795
 30
0.0
 10
16.050183
 20
16.049795
 30
0.0
 10
16.050183
 20
114.960039
 30
0.0
 10
16.050183
 20
114.960039
 30
0.0
 10
16.050183
 20
114.960039
 30
0.0
  0
SPLINE
  5
104
100
AcDbEntity
  8
Layer_1
 62
7
100
AcDbSpline
 70
8
 71
3
 72
8
 73
4
 74
0
 40
0
 40
0
 40
0
 40
0
 40
1
 40
1
 40
1
 40
1
 10
149.130253
 20
196.290143
 30
0.0
 10
151.171619
 20
196.290210
 30
0.0
 10
152.826575
 20
194.635377
 30
0.0
 10
152.826813
 20
192.593858
 30
0.0
  0
SPLINE
  5
105
100
AcDbEntity
  8
Layer_1
 62
7
100
AcDbSpline
 70
8
 71
3
 72
8
 73
4
 74
0
 40
0
 40
0
 40
0
 40
0
 40
1
 40
1
 40
1
 40
1
 10
152.826813
 20
192.593858
 30
0.0
 10
152.826844
 20
191.613387
 30
0.0
 10
152.437396
 20
190.673065
 30
0.0
 10
151.744150
 20
189.979767
 30
0.0
  0
SPLINE
  5
106
100
AcDbEntity
  8
Layer_1
 62
7
100
AcDbSpline
 70
8
 71
3
 72
8
 73
4
 74
0
 40
0
 40
0
 40
0
 40
0
 40
1
 40
1
 40
1
 40
1
 10
151.744150
 20
189.979767
 30
0.0
 10
151.050903
 20
189.286470
 30
0.0
 10
150.110651
 20
188.896994
 30
0.0
 10
149.130253
 20
188.897026
 30
0.0
  0
SPLINE
  5
107
100
AcDbEntity
  8
Layer_1
 62
7
100
AcDbSpline
 70
8
 71
3
 72
8
 73
4
 74
0
 40
0
 40
0
 40
0
 40
0
 40
1
 40
1
 40
1
 40
1
 10
149.130253
 20
188.897026
 30
0.0
 10
148.149855
 20
188.896994
 30
0.0
 10
147.209603
 20
189.286471
 30
0.0
 10
146.516357
 20
189.979768
 30
0.0
  0
SPLINE
  5
108
100
AcDbEntity
  8
Layer_1
 62
7
100
AcDbSpline
 70
8
 71
3
 72
8
 73
4
 74
0
 40
0
 40
0
 40
0
 40
0
 40
1
 40
1
 40
1
 40
1
 10
146.516357
 20
189.979768
 30
0.0
 10
145.823112
 20
190.673066
 30
0.0
 10
145.433664
 20
191.613388
 30
0.0
 10
145.433695
 20
192.593858
 30
0.0
  0
SPLINE
  5
109
100
AcDbEntity
  8
Layer_1
 62
7
100
AcDbSpline
 70
8
 71
3
 72
8
 73
4
 74
0
 40
0
 40
0
 40
0
 40
0
 40
1
 40
1
 40
1
 40
1
 10
145.433695
 20
192.593858
 30
0.0
 10
145.433933
 20
194.635376
 30
0.0
 10
147.088888
 20
196.290209
 30
0.0
 10
149.130253
 20
196.290143
 30
0.0
  0
LWPOLYLINE
  5
10a
100
AcDbEntity
  8
Layer_1
 62
7
100
AcDbPolyline
 90
7
 70
1
 10
100.053324
 20
114.946599
 30
0.0
 10
100.053324
 20
0.053351
 30
0.0
 10
173.946487
 20
0.053351
 30
0.0
 10
173.946487
 20
114.946599
 30
0.0
 10
100.053324
 20
114.946599
 30
0.0
 10
100.053324
 20
114.946599
 30
0.0
 10
100.053324
 20
114.946599
 30
0.0
  0
LWPOLYLINE
  5
10b
100
AcDbEntity
  8
Layer_1
 62
7
100
AcDbPolyline
 90
7
 70
1
 10
108.050252
 20
106.950202
 30
0.0
 10
165.950075
 20
106.950202
 30
0.0
 10
165.950075
 20
8.049774
 30
0.0
 10
108.050252
 20
8.049774
 30
0.0
 10
108.050252
 20
106.950202
 30
0.0
 10
108.050252
 20
106.950202
 30
0.0
 10
108.050252
 20
106.950202
 30
0.0
  0
LWPOLYLINE
  5
10c
100
AcDbEntity
  8
Layer_1
 62
7
100
AcDbPolyline
 90
42
 70
1
 10
183.049810
 20
159.949966
 30
0.0
 10
183.049810
 20
140.049889
 30
0.0
 10
180.049993
 20
140.049889
 30
0.0
 10
180.049993
 20
120.050077
 30
0.0
 10
183.049810
 20
120.050077
 30
0.0
 10
183.049810
 20
100.049747
 30
0.0
 10
180.049993
 20
100.049747
 30
0.0
 10
180.049993
 20
80.049935
 30
0.0
 10
183.049810
 20
80.049935
 30
0.0
 10
183.049810
 20
60.050123
 30
0.0
 10
180.049993
 20
60.050123
 30
0.0
 10
180.049993
 20
40.049793
 30
0.0
 10
183.049810
 20
40.049793
 30
0.0
 10
183.049810
 20
20.049989
 30
0.0
 10
180.049993
 20
20.049989
 30
0.0
 10
180.049993
 20
0.050161
 30
0.0
 10
209.949976
 20
0.050161
 30
0.0
 10
209.949976
 20
3.050510
 30
0.0
 10
239.949694
 20
3.050510
 30
0.0
 10
239.949694
 20
0.050161
 30
0.0
 10
269.949930
 20
0.050161
 30
0.0
 10
269.949930
 20
20.049989
 30
0.0
 10
266.950111
 20
20.049989
 30
0.0
 10
266.950111
 20
40.049793
 30
0.0
 10
269.949930
 20
40.049793
 30
0.0
 10
269.949930
 20
60.050123
 30
0.0
 10
266.950111
 20
60.050123
 30
0.0
 10
266.950111
 20
80.049935
 30
0.0
 10
269.949930
 20
80.049935
 30
0.0
 10
269.949930
 20
100.049747
 30
0.0
 10
266.950111
 20
100.049747
 30
0.0
 10
266.950111
 20
120.050077
 30
0.0
 10
269.949930
 20
120.050077
 30
0.0
 10
269.949930
 20
140.049889
 30
0.0
 10
266.950111
 20
140.049889
 30
0.0
 10
266.950111
 20
159.949966
 30
0.0
 10
240.049947
 20
159.949966
 30
0.0
 10
240.049947
 20
156.949633
 30
0.0
 10
210.050227
 20
156.949633
 30
0.0
 10
210.050227
 20
159.949966
 30
0.0
 10
183.049810
 20
159.949966
 30
0.0
 10
183.049810
 20
159.949966
 30
0.0
  0
LWPOLYLINE
  5
10d
100
AcDbEntity
  8
Layer_1
 62
7
100
AcDbPolyline
 90
6
 70
1
 10
199.841549
 20
146.324443
 30
0.0
 10
209.872977
 20
146.324443
 30
0.0
 10
209.872977
 20
122.408073
 30
0.0
 10
199.841549
 20
122.408073
 30
0.0
 10
199.841549
 20
146.324443
 30
0.0
 10
199.841549
 20
146.324443
 30
0.0
  0
SPLINE
  5
10e
100
AcDbEntity
  8
Layer_1
 62
7
100
AcDbSpline
 70
8
 71
3
 72
8
 73
4
 74
0
 40
0
 40
0
 40
0
 40
0
 40
1
 40
1
 40
1
 40
1
 10
334.640740
 20
94.125342
 30
0.0
 10
335.545128
 20
94.125378
 30
0.0
 10
336.412484
 20
93.766127
 30
0.0
 10
337.051982
 20
93.126627
 30
0.0
  0
SPLINE
  5
10f
100
AcDbEntity
  8
Layer_1
 62
7
100
AcDbSpline
 70
8
 71
3
 72
8
 73
4
 74
0
 40
0
 40
0
 40
0
 40
0
 40
1
 40
1
 40
1
 40
1
 10
337.051982
 20
93.126627
 30
0.0
 10
337.691480
 20
92.487128
 30
0.0
 10
338.050729
 20
91.619771
 30
0.0
 10
338.050690
 20
90.715384
 30
0.0
  0
SPLINE
  5
110
100
AcDbEntity
  8
Layer_1
 62
7
100
AcDbSpline
 70
8
 71
3
 72
8
 73
4
 74
0
 40
0
 40
0
 40
0
 40
0
 40
1
 40
1
 40
1
 40
1
 10
338.050690
 20
90.715384
 30
0.0
 10
338.050576
 20
88.832225
 30
0.0
 10
336.523901
 20
87.305704
 30
0.0
 10
334.640740
 20
87.305778
 30
0.0
  0
SPLINE
  5
111
100
AcDbEntity
  8
Layer_1
 62
7
100
AcDbSpline
 70
8
 71
3
 72
8
 73
4
 74
0
 40
0
 40
0
 40
0
 40
0
 40
1
 40
1
 40
1
 40
1
 10
334.640740
 20
87.305778
 30
0.0
 10
332.757714
 20
87.305894
 30
0.0
 10
331.231249
 20
88.832359
 30
0.0
 10
331.231134
 20
90.715384
 30
0.0
  0
SPLINE
  5
112
100
AcDbEntity
  8
Layer_1
 62
7
100
AcDbSpline
 70
8
 71
3
 72
8
 73
4
 74
0
 40
0
 40
0
 40
0
 40
0
 40
1
 40
1
 40
1
 40
1
 10
331.231134
 20
90.715384
 30
0.0
 10
331.231054
 20
92.598547
 30
0.0
 10
332.757576
 20
94.125226
 30
0.0
 10
334.640740
 20
94.125342
 30
0.0
  0
LWPOLYLINE
  5
113
100
AcDbEntity
  8
Layer_1
 62
7
100
AcDbPolyline
 90
5
 70
1
 10
292.582097
 20
103.793622
 30
0.0
 10
302.404410
 20
103.793622
 30
0.0
 10
302.404410
 20
98.971329
 30
0.0
 10
292.582097
 20
98.971329
 30
0.0
 10
292.582097
 20
103.793622
 30
0.0
  0
SPLINE
  5
114
100
AcDbEntity
  8
Layer_1
 62
7
100
AcDbSpline
 70
8
 71
3
 72
8
 73
4
 74
0
 40
0
 40
0
 40
0
 40
0
 40
1
 40
1
 40
1
 40
1
 10
334.818329
 20
10.892389
 30
0.0
 10
335.076470
 20
10.892336
 30
0.0
 10
335.324016
 20
10.789731
 30
0.0
 10
335.506503
 20
10.607150
 30
0.0
  0
SPLINE
  5
115
100
AcDbEntity
  8
Layer_1
 62
7
100
AcDbSpline
 70
8
 71
3
 72
8
 73
4
 74
0
 40
0
 40
0
 40
0
 40
0
 40
1
 40
1
 40
1
 40
1
 10
335.506503
 20
10.607150
 30
0.0
 10
335.688990
 20
10.424569
 30
0.0
 10
335.791466
 20
10.176970
 30
0.0
 10
335.791387
 20
9.918828
 30
0.0
  0
SPLINE
  5
116
100
AcDbEntity
  8
Layer_1
 62
7
100
AcDbSpline
 70
8
 71
3
 72
8
 73
4
 74
0
 40
0
 40
0
 40
0
 40
0
 40
1
 40
1
 40
1
 40
1
 10
335.791387
 20
9.918828
 30
0.0
 10
335.791290
 20
9.381459
 30
0.0
 10
335.355698
 20
8.945855
 30
0.0
 10
334.818329
 20
8.945744
 30
0.0
  0
SPLINE
  5
117
100
AcDbEntity
  8
Layer_1
 62
7
100
AcDbSpline
 70
8
 71
3
 72
8
 73
4
 74
0
 40
0
 40
0
 40
0
 40
0
 40
1
 40
1
 40
1
 40
1
 10
334.818329
 20
8.945744
 30
0.0
 10
334.280949
 20
8.945841
 30
0.0
 10
333.845341
 20
9.381449
 30
0.0
 10
333.845244
 20
9.918828
 30
0.0
  0
SPLINE
  5
118
100
AcDbEntity
  8
Layer_1
 62
7
100
AcDbSpline
 70
8
 71
3
 72
8
 73
4
 74
0
 40
0
 40
0
 40
0
 40
0
 40
1
 40
1
 40
1
 40
1
 10
333.845244
 20
9.918828
 30
0.0
 10
333.845164
 20
10.176975
 30
0.0
 10
333.947645
 20
10.424578
 30
0.0
 10
334.130137
 20
10.607159
 30
0.0
  0
SPLINE
  5
119
100
AcDbEntity
  8
Layer_1
 62
7
100
AcDbSpline
 70
8
 71
3
 72
8
 73
4
 74
0
 40
0
 40
0
 40
0
 40
0
 40
1
 40
1
 40
1
 40
1
 10
334.130137
 20
10.607159
 30
0.0
 10
334.312629
 20
10.789741
 30
0.0
 10
334.560182
 20
10.892343
 30
0.0
 10
334.818329
 20
10.892389
 30
0.0
  0
LWPOLYLINE
  5
11a
100
AcDbEntity
  8
Layer_1
 62
7
100
AcDbPolyline
 90
33
 70
1
 10
319.121605
 20
160.049703
 30
0.0
 10
319.121605
 20
140.049889
 30
0.0
 10
322.121424
 20
140.049889
 30
0.0
 10
322.121424
 20
120.050077
 30
0.0
 10
319.121605
 20
120.050077
 30
0.0
 10
319.121605
 20
100.049747
 30
0.0
 10
322.121424
 20
100.049747
 30
0.0
 10
322.121424
 20
80.049419
 30
0.0
 10
319.121605
 20
80.049419
 30
0.0
 10
319.121605
 20
60.050123
 30
0.0
 10
322.121424
 20
60.050123
 30
0.0
 10
322.121424
 20
40.049793
 30
0.0
 10
319.121605
 20
40.049793
 30
0.0
 10
319.121605
 20
20.049460
 30
0.0
 10
322.121424
 20
20.049460
 30
0.0
 10
322.121424
 20
0.050161
 30
0.0
 10
347.121956
 20
0.050161
 30
0.0
 10
347.121956
 20
20.049460
 30
0.0
 10
350.121776
 20
20.049460
 30
0.0
 10
350.121776
 20
40.049793
 30
0.0
 10
347.121956
 20
40.049793
 30
0.0
 10
347.121956
 20
60.050123
 30
0.0
 10
350.121776
 20
60.050123
 30
0.0
 10
350.121776
 20
80.049419
 30
0.0
 10
347.121956
 20
80.049419
 30
0.0
 10
347.121956
 20
100.049747
 30
0.0
 10
350.121776
 20
100.049747
 30
0.0
 10
350.121776
 20
120.050077
 30
0.0
 10
347.121956
 20
120.050077
 30
0.0
 10
347.121956
 20
140.049889
 30
0.0
 10
350.121776
 20
140.049889
 30
0.0
 10
350.121776
 20
160.049703
 30
0.0
 10
319.121605
 20
160.049703
 30
0.0
  0
LWPOLYLINE
  5
11b
100
AcDbEntity
  8
Layer_1
 62
7
100
AcDbPolyline
 90
5
 70
1
 10
343.141326
 20
153.088542
 30
0.0
 10
346.141146
 20
153.088542
 30
0.0
 10
346.141146
 20
145.088513
 30
0.0
 10
343.141326
 20
145.088513
 30
0.0
 10
343.141326
 20
153.088542
 30
0.0
  0
SPLINE
  5
11c
100
AcDbEntity
  8
Layer_1
 62
7
100
AcDbSpline
 70
8
 71
3
 72
8
 73
4
 74
0
 40
0
 40
0
 40
0
 40
0
 40
1
 40
1
 40
1
 40
1
 10
112.550235
 20
164.050063
 30
0.0
 10
118.901364
 20
164.049818
 30
0.0
 10
124.049831
 20
158.901121
 30
0.0
 10
124.049791
 20
152.549991
 30
0.0
  0
SPLINE
  5
11d
100
AcDbEntity
  8
Layer_1
 62
7
100
AcDbSpline
 70
8
 71
3
 72
8
 73
4
 74
0
 40
0
 40
0
 40
0
 40
0
 40
1
 40
1
 40
1
 40
1
 10
124.049791
 20
152.549991
 30
0.0
 10
124.049831
 20
146.198862
 30
0.0
 10
118.901364
 20
141.050164
 30
0.0
 10
112.550235
 20
141.049919
 30
0.0
  0
SPLINE
  5
11e
100
AcDbEntity
  8
Layer_1
 62
7
100
AcDbSpline
 70
8
 71
3
 72
8
 73
4
 74
0
 40
0
 40
0
 40
0
 40
0
 40
1
 40
1
 40
1
 40
1
 10
112.550235
 20
141.049919
 30
0.0
 10
109.500220
 20
141.049900
 30
0.0
 10
106.575121
 20
142.261505
 30
0.0
 10
104.418435
 20
144.418191
 30
0.0
  0
SPLINE
  5
11f
100
AcDbEntity
  8
Layer_1
 62
7
100
AcDbSpline
 70
8
 71
3
 72
8
 73
4
 74
0
 40
0
 40
0
 40
0
 40
0
 40
1
 40
1
 40
1
 40
1
 10
104.418435
 20
144.418191
 30
0.0
 10
102.261749
 20
146.574877
 30
0.0
 10
101.050144
 20
149.499976
 30
0.0
 10
101.050163
 20
152.549991
 30
0.0
  0
SPLINE
  5
120
100
AcDbEntity
  8
Layer_1
 62
7
100
AcDbSpline
 70
8
 71
3
 72
8
 73
4
 74
0
 40
0
 40
0
 40
0
 40
0
 40
1
 40
1
 40
1
 40
1
 10
101.050163
 20
152.549991
 30
0.0
 10
101.050144
 20
155.600006
 30
0.0
 10
102.261749
 20
158.525105
 30
0.0
 10
104.418435
 20
160.681791
 30
0.0
  0
SPLINE
  5
121
100
AcDbEntity
  8
Layer_1
 62
7
100
AcDbSpline
 70
8
 71
3
 72
8
 73
4
 74
0
 40
0
 40
0
 40
0
 40
0
 40
1
 40
1
 40
1
 40
1
 10
104.418435
 20
160.681791
 30
0.0
 10
106.575121
 20
162.838477
 30
0.0
 10
109.500220
 20
164.050082
 30
0.0
 10
112.550235
 20
164.050063
 30
0.0
  0
LWPOLYLINE
  5
122
100
AcDbEntity
  8
Layer_1
 62
7
100
AcDbPolyline
 90
5
 70
1
 10
329.759151
 20
103.794122
 30
0.0
 10
339.581437
 20
103.794122
 30
0.0
 10
339.581437
 20
98.971832
 30
0.0
 10
329.759151
 20
98.971832
 30
0.0
 10
329.759151
 20
103.794122
 30
0.0
  0
SPLINE
  5
123
100
AcDbEntity
  8
Layer_1
 62
7
100
AcDbSpline
 70
8
 71
3
 72
8
 73
4
 74
0
 40
0
 40
0
 40
0
 40
0
 40
1
 40
1
 40
1
 40
1
 10
149.754170
 20
163.238610
 30
0.0
 10
156.105296
 20
163.238361
 30
0.0
 10
161.253759
 20
158.089666
 30
0.0
 10
161.253720
 20
151.738540
 30
0.0
  0
SPLINE
  5
124
100
AcDbEntity
  8
Layer_1
 62
7
100
AcDbSpline
 70
8
 71
3
 72
8
 73
4
 74
0
 40
0
 40
0
 40
0
 40
0
 40
1
 40
1
 40
1
 40
1
 10
161.253720
 20
151.738540
 30
0.0
 10
161.253759
 20
145.387414
 30
0.0
 10
156.105296
 20
140.238719
 30
0.0
 10
149.754170
 20
140.238470
 30
0.0
  0
SPLINE
  5
125
100
AcDbEntity
  8
Layer_1
 62
7
100
AcDbSpline
 70
8
 71
3
 72
8
 73
4
 74
0
 40
0
 40
0
 40
0
 40
0
 40
1
 40
1
 40
1
 40
1
 10
149.754170
 20
140.238470
 30
0.0
 10
146.704154
 20
140.238449
 30
0.0
 10
143.779053
 20
141.450053
 30
0.0
 10
141.622366
 20
143.606738
 30
0.0
  0
SPLINE
  5
126
100
AcDbEntity
  8
Layer_1
 62
7
100
AcDbSpline
 70
8
 71
3
 72
8
 73
4
 74
0
 40
0
 40
0
 40
0
 40
0
 40
1
 40
1
 40
1
 40
1
 10
141.622366
 20
143.606738
 30
0.0
 10
139.465678
 20
145.763424
 30
0.0
 10
138.254071
 20
148.688524
 30
0.0
 10
138.254090
 20
151.738540
 30
0.0
  0
SPLINE
  5
127
100
AcDbEntity
  8
Layer_1
 62
7
100
AcDbSpline
 70
8
 71
3
 72
8
 73
4
 74
0
 40
0
 40
0
 40
0
 40
0
 40
1
 40
1
 40
1
 40
1
 10
138.254090
 20
151.738540
 30
0.0
 10
138.254071
 20
154.788556
 30
0.0
 10
139.465678
 20
157.713656
 30
0.0
 10
141.622366
 20
159.870342
 30
0.0
  0
SPLINE
  5
128
100
AcDbEntity
  8
Layer_1
 62
7
100
AcDbSpline
 70
8
 71
3
 72
8
 73
4
 74
0
 40
0
 40
0
 40
0
 40
0
 40
1
 40
1
 40
1
 40
1
 10
141.622366
 20
159.870342
 30
0.0
 10
143.779053
 20
162.027027
 30
0.0
 10
146.704154
 20
163.238631
 30
0.0
 10
149.754170
 20
163.238610
 30
0.0
  0
LWPOLYLINE
  5
129
100
AcDbEntity
  8
Layer_1
 62
7
100
AcDbPolyline
 90
14
 70
1
 10
60.050143
 20
205.162663
 30
0.0
 10
60.050143
 20
208.162487
 30
0.0
 10
87.050043
 20
208.162487
 30
0.0
 10
87.050043
 20
233.162507
 30
0.0
 10
60.050143
 20
233.162507
 30
0.0
 10
60.050143
 20
236.162327
 30
0.0
 10
30.050423
 20
236.162327
 30
0.0
 10
30.050423
 20
233.162507
 30
0.0
 10
3.050000
 20
233.162507
 30
0.0
 10
3.050000
 20
208.162487
 30
0.0
 10
30.050423
 20
208.162487
 30
0.0
 10
30.050423
 20
205.162663
 30
0.0
 10
60.050143
 20
205.162663
 30
0.0
 10
60.050143
 20
205.162663
 30
0.0
  0
SPLINE
  5
12a
100
AcDbEntity
  8
Layer_1
 62
7
100
AcDbSpline
 70
8
 71
3
 72
8
 73
4
 74
0
 40
0
 40
0
 40
0
 40
0
 40
1
 40
1
 40
1
 40
1
 10
114.273642
 20
137.365553
 30
0.0
 10
111.636682
 20
137.365663
 30
0.0
 10
109.107694
 20
136.318183
 30
0.0
 10
107.243083
 20
134.453570
 30
0.0
  0
SPLINE
  5
12b
100
AcDbEntity
  8
Layer_1
 62
7
100
AcDbSpline
 70
8
 71
3
 72
8
 73
4
 74
0
 40
0
 40
0
 40
0
 40
0
 40
1
 40
1
 40
1
 40
1
 10
107.243083
 20
134.453570
 30
0.0
 10
105.378471
 20
132.588958
 30
0.0
 10
104.330993
 20
130.059969
 30
0.0
 10
104.331103
 20
127.423009
 30
0.0
  0
SPLINE
  5
12c
100
AcDbEntity
  8
Layer_1
 62
7
100
AcDbSpline
 70
8
 71
3
 72
8
 73
4
 74
0
 40
0
 40
0
 40
0
 40
0
 40
1
 40
1
 40
1
 40
1
 10
104.331103
 20
127.423009
 30
0.0
 10
104.331129
 20
124.786138
 30
0.0
 10
105.378668
 20
122.257282
 30
0.0
 10
107.243264
 20
120.392780
 30
0.0
  0
SPLINE
  5
12d
100
AcDbEntity
  8
Layer_1
 62
7
100
AcDbSpline
 70
8
 71
3
 72
8
 73
4
 74
0
 40
0
 40
0
 40
0
 40
0
 40
1
 40
1
 40
1
 40
1
 10
107.243264
 20
120.392780
 30
0.0
 10
109.107861
 20
118.528279
 30
0.0
 10
111.636771
 20
117.480869
 30
0.0
 10
114.273642
 20
117.480978
 30
0.0
  0
SPLINE
  5
12e
100
AcDbEntity
  8
Layer_1
 62
7
100
AcDbSpline
 70
8
 71
3
 72
8
 73
4
 74
0
 40
0
 40
0
 40
0
 40
0
 40
1
 40
1
 40
1
 40
1
 10
114.273642
 20
117.480978
 30
0.0
 10
119.764454
 20
117.481028
 30
0.0
 10
124.215626
 20
121.932197
 30
0.0
 10
124.215678
 20
127.423009
 30
0.0
  0
SPLINE
  5
12f
100
AcDbEntity
  8
Layer_1
 62
7
100
AcDbSpline
 70
8
 71
3
 72
8
 73
4
 74
0
 40
0
 40
0
 40
0
 40
0
 40
1
 40
1
 40
1
 40
1
 10
124.215678
 20
127.423009
 30
0.0
 10
124.215789
 20
130.059882
 30
0.0
 10
123.168379
 20
132.588794
 30
0.0
 10
121.303877
 20
134.453392
 30
0.0
  0
SPLINE
  5
130
100
AcDbEntity
  8
Layer_1
 62
7
100
AcDbSpline
 70
8
 71
3
 72
8
 73
4
 74
0
 40
0
 40
0
 40
0
 40
0
 40
1
 40
1
 40
1
 40
1
 10
121.303877
 20
134.453392
 30
0.0
 10
119.439374
 20
136.317991
 30
0.0
 10
116.910515
 20
137.365529
 30
0.0
 10
114.273642
 20
137.365553
 30
0.0
  0
LWPOLYLINE
  5
131
100
AcDbEntity
  8
Layer_1
 62
7
100
AcDbPolyline
 90
7
 70
1
 10
100.050223
 20
165.050003
 30
0.0
 10
100.050223
 20
140.049979
 30
0.0
 10
125.050247
 20
140.049979
 30
0.0
 10
125.050247
 20
165.050003
 30
0.0
 10
100.050223
 20
165.050003
 30
0.0
 10
100.050223
 20
165.050003
 30
0.0
 10
100.050223
 20
165.050003
 30
0.0
  0
SPLINE
  5
132
100
AcDbEntity
  8
Layer_1
 62
7
100
AcDbSpline
 70
8
 71
3
 72
8
 73
4
 74
0
 40
0
 40
0
 40
0
 40
0
 40
1
 40
1
 40
1
 40
1
 10
114.685493
 20
130.857425
 30
0.0
 10
116.424435
 20
130.648910
 30
0.0
 10
117.733650
 20
129.174408
 30
0.0
 10
117.734921
 20
127.423009
 30
0.0
  0
SPLINE
  5
133
100
AcDbEntity
  8
Layer_1
 62
7
100
AcDbSpline
 70
8
 71
3
 72
8
 73
4
 74
0
 40
0
 40
0
 40
0
 40
0
 40
1
 40
1
 40
1
 40
1
 10
117.734921
 20
127.423009
 30
0.0
 10
117.732605
 20
125.672398
 30
0.0
 10
116.423654
 20
124.199080
 30
0.0
 10
114.685493
 20
123.990660
 30
0.0
  0
LWPOLYLINE
  5
134
100
AcDbEntity
  8
Layer_1
 62
7
100
AcDbPolyline
 90
6
 70
1
 10
137.254150
 20
164.238550
 30
0.0
 10
137.254150
 20
139.238530
 30
0.0
 10
162.254180
 20
139.238530
 30
0.0
 10
162.254180
 20
164.238550
 30
0.0
 10
137.254150
 20
164.238550
 30
0.0
 10
137.254150
 20
164.238550
 30
0.0
  0
SPLINE
  5
135
100
AcDbEntity
  8
Layer_1
 62
7
100
AcDbSpline
 70
8
 71
3
 72
8
 73
4
 74
0
 40
0
 40
0
 40
0
 40
0
 40
1
 40
1
 40
1
 40
1
 10
113.861263
 20
123.988556
 30
0.0
 10
112.122320
 20
124.197072
 30
0.0
 10
110.813106
 20
125.671573
 30
0.0
 10
110.811834
 20
127.422972
 30
0.0
  0
SPLINE
  5
136
100
AcDbEntity
  8
Layer_1
 62
7
100
AcDbSpline
 70
8
 71
3
 72
8
 73
4
 74
0
 40
0
 40
0
 40
0
 40
0
 40
1
 40
1
 40
1
 40
1
 10
110.811834
 20
127.422972
 30
0.0
 10
110.813889
 20
129.173780
 30
0.0
 10
112.122906
 20
130.647393
 30
0.0
 10
113.861263
 20
130.855838
 30
0.0
  0
LWPOLYLINE
  5
137
100
AcDbEntity
  8
Layer_1
 62
7
100
AcDbPolyline
 90
2
 70
0
 10
114.685493
 20
123.990660
 30
0.0
 10
114.685493
 20
130.857425
 30
0.0
  0
LWPOLYLINE
  5
138
100
AcDbEntity
  8
Layer_1
 62
7
100
AcDbPolyline
 90
2
 70
0
 10
113.861263
 20
130.855838
 30
0.0
 10
113.861263
 20
123.988556
 30
0.0
  0
LWPOLYLINE
  5
139
100
AcDbEntity
  8
Layer_1
 62
7
100
AcDbPolyline
 90
5
 70
1
 10
97.310863
 20
185.692961
 30
0.0
 10
117.214841
 20
185.692961
 30
0.0
 10
117.214841
 20
175.788983
 30
0.0
 10
97.310863
 20
175.788983
 30
0.0
 10
97.310863
 20
185.692961
 30
0.0
  0
LWPOLYLINE
  5
13a
100
AcDbEntity
  8
Layer_1
 62
7
100
AcDbPolyline
 90
5
 70
1
 10
97.446952
 20
195.951677
 30
0.0
 10
117.372450
 20
195.951677
 30
0.0
 10
117.372450
 20
191.026179
 30
0.0
 10
97.446952
 20
191.026179
 30
0.0
 10
97.446952
 20
195.951677
 30
0.0
  0
LWPOLYLINE
  5
13b
100
AcDbEntity
  8
Layer_1
 62
7
100
AcDbPolyline
 90
5
 70
1
 10
97.802978
 20
205.698888
 30
0.0
 10
117.728476
 20
205.698888
 30
0.0
 10
117.728476
 20
200.773389
 30
0.0
 10
97.802978
 20
200.773389
 30
0.0
 10
97.802978
 20
205.698888
 30
0.0
  0
LWPOLYLINE
  5
13c
100
AcDbEntity
  8
Layer_1
 62
7
100
AcDbPolyline
 90
5
 70
1
 10
97.048905
 20
216.038299
 30
0.0
 10
116.974403
 20
216.038299
 30
0.0
 10
116.974403
 20
211.112800
 30
0.0
 10
97.048905
 20
211.112800
 30
0.0
 10
97.048905
 20
216.038299
 30
0.0
  0
LWPOLYLINE
  5
13d
100
AcDbEntity
  8
Layer_1
 62
7
100
AcDbPolyline
 90
5
 70
1
 10
97.198138
 20
225.142492
 30
0.0
 10
117.123635
 20
225.142492
 30
0.0
 10
117.123635
 20
220.216994
 30
0.0
 10
97.198138
 20
220.216994
 30
0.0
 10
97.198138
 20
225.142492
 30
0.0
  0
LWPOLYLINE
  5
13e
100
AcDbEntity
  8
Layer_1
 62
7
100
AcDbPolyline
 90
2
 70
0
 10
278.946663
 20
46.267247
 30
0.0
 10
315.512715
 20
46.267247
 30
0.0
  0
SPLINE
  5
13f
100
AcDbEntity
  8
Layer_1
 62
7
100
AcDbSpline
 70
8
 71
3
 72
8
 73
4
 74
0
 40
0
 40
0
 40
0
 40
0
 40
1
 40
1
 40
1
 40
1
 10
297.515359
 20
12.429513
 30
0.0
 10
298.976939
 20
12.429484
 30
0.0
 10
300.161776
 20
11.244647
 30
0.0
 10
300.161801
 20
9.783071
 30
0.0
  0
SPLINE
  5
140
100
AcDbEntity
  8
Layer_1
 62
7
100
AcDbSpline
 70
8
 71
3
 72
8
 73
4
 74
0
 40
0
 40
0
 40
0
 40
0
 40
1
 40
1
 40
1
 40
1
 10
300.161801
 20
9.783071
 30
0.0
 10
300.161776
 20
8.321494
 30
0.0
 10
298.976939
 20
7.136657
 30
0.0
 10
297.515359
 20
7.136629
 30
0.0
  0
SPLINE
  5
141
100
AcDbEntity
  8
Layer_1
 62
7
100
AcDbSpline
 70
8
 71
3
 72
8
 73
4
 74
0
 40
0
 40
0
 40
0
 40
0
 40
1
 40
1
 40
1
 40
1
 10
297.515359
 20
7.136629
 30
0.0
 10
296.053779
 20
7.136657
 30
0.0
 10
294.868943
 20
8.321494
 30
0.0
 10
294.868917
 20
9.783071
 30
0.0
  0
SPLINE
  5
142
100
AcDbEntity
  8
Layer_1
 62
7
100
AcDbSpline
 70
8
 71
3
 72
8
 73
4
 74
0
 40
0
 40
0
 40
0
 40
0
 40
1
 40
1
 40
1
 40
1
 10
294.868917
 20
9.783071
 30
0.0
 10
294.868943
 20
11.244647
 30
0.0
 10
296.053779
 20
12.429484
 30
0.0
 10
297.515359
 20
12.429513
 30
0.0
  0
LWPOLYLINE
  5
143
100
AcDbEntity
  8
Layer_1
 62
7
100
AcDbPolyline
 90
2
 70
0
 10
283.490511
 20
95.968877
 30
0.0
 10
311.781481
 20
95.968877
 30
0.0
  0
LWPOLYLINE
  5
144
100
AcDbEntity
  8
Layer_1
 62
7
100
AcDbPolyline
 90
37
 70
1
 10
282.049961
 20
160.050219
 30
0.0
 10
282.049961
 20
140.050408
 30
0.0
 10
285.049780
 20
140.050408
 30
0.0
 10
285.049780
 20
120.050593
 30
0.0
 10
282.049961
 20
120.050593
 30
0.0
 10
282.049961
 20
100.050265
 30
0.0
 10
285.049780
 20
100.050265
 30
0.0
 10
285.049780
 20
80.050451
 30
0.0
 10
282.049961
 20
80.050451
 30
0.0
 10
282.049961
 20
60.050639
 30
0.0
 10
285.049780
 20
60.050639
 30
0.0
 10
285.049780
 20
40.050309
 30
0.0
 10
282.049961
 20
40.050309
 30
0.0
 10
282.049961
 20
20.050491
 30
0.0
 10
285.049780
 20
20.050491
 30
0.0
 10
285.049780
 20
0.050690
 30
0.0
 10
282.049961
 20
0.050690
 30
0.0
 10
282.049961
 20
0.050690
 30
0.0
 10
313.050132
 20
0.050690
 30
0.0
 10
313.050132
 20
0.050690
 30
0.0
 10
310.050339
 20
0.050690
 30
0.0
 10
310.050339
 20
20.050491
 30
0.0
 10
313.050132
 20
20.050491
 30
0.0
 10
313.050132
 20
40.050309
 30
0.0
 10
310.050339
 20
40.050309
 30
0.0
 10
310.050339
 20
60.050639
 30
0.0
 10
313.050132
 20
60.050639
 30
0.0
 10
313.050132
 20
80.050451
 30
0.0
 10
310.050339
 20
80.050451
 30
0.0
 10
310.050339
 20
100.050265
 30
0.0
 10
313.050132
 20
100.050265
 30
0.0
 10
313.050132
 20
120.050593
 30
0.0
 10
310.050339
 20
120.050593
 30
0.0
 10
310.050339
 20
140.050408
 30
0.0
 10
313.050132
 20
140.050408
 30
0.0
 10
313.050132
 20
160.050219
 30
0.0
 10
282.049961
 20
160.050219
 30
0.0
  0
LWPOLYLINE
  5
145
100
AcDbEntity
  8
Layer_1
 62
7
100
AcDbPolyline
 90
5
 70
1
 10
300.992037
 20
39.949637
 30
0.0
 10
303.891289
 20
39.949637
 30
0.0
 10
303.891289
 20
35.050386
 30
0.0
 10
300.992037
 20
35.050386
 30
0.0
 10
300.992037
 20
39.949637
 30
0.0
  0
LWPOLYLINE
  5
146
100
AcDbEntity
  8
Layer_1
 62
7
100
AcDbPolyline
 90
5
 70
1
 10
296.050361
 20
39.949637
 30
0.0
 10
298.949613
 20
39.949637
 30
0.0
 10
298.949613
 20
35.050386
 30
0.0
 10
296.050361
 20
35.050386
 30
0.0
 10
296.050361
 20
39.949637
 30
0.0
  0
LWPOLYLINE
  5
147
100
AcDbEntity
  8
Layer_1
 62
7
100
AcDbPolyline
 90
5
 70
1
 10
291.108712
 20
39.949637
 30
0.0
 10
294.007964
 20
39.949637
 30
0.0
 10
294.007964
 20
35.050386
 30
0.0
 10
291.108712
 20
35.050386
 30
0.0
 10
291.108712
 20
39.949637
 30
0.0
  0
LWPOLYLINE
  5
148
100
AcDbEntity
  8
Layer_1
 62
7
100
AcDbPolyline
 90
5
 70
1
 10
300.992037
 20
32.449626
 30
0.0
 10
303.891289
 20
32.449626
 30
0.0
 10
303.891289
 20
27.550374
 30
0.0
 10
300.992037
 20
27.550374
 30
0.0
 10
300.992037
 20
32.449626
 30
0.0
  0
LWPOLYLINE
  5
149
100
AcDbEntity
  8
Layer_1
 62
7
100
AcDbPolyline
 90
5
 70
1
 10
296.050361
 20
32.449626
 30
0.0
 10
298.949613
 20
32.449626
 30
0.0
 10
298.949613
 20
27.550374
 30
0.0
 10
296.050361
 20
27.550374
 30
0.0
 10
296.050361
 20
32.449626
 30
0.0
  0
LWPOLYLINE
  5
14a
100
AcDbEntity
  8
Layer_1
 62
7
100
AcDbPolyline
 90
5
 70
1
 10
291.108712
 20
32.449626
 30
0.0
 10
294.007964
 20
32.449626
 30
0.0
 10
294.007964
 20
27.550374
 30
0.0
 10
291.108712
 20
27.550374
 30
0.0
 10
291.108712
 20
32.449626
 30
0.0
  0
LWPOLYLINE
  5
14b
100
AcDbEntity
  8
Layer_1
 62
7
100
AcDbPolyline
 90
5
 70
1
 10
300.992037
 20
24.949649
 30
0.0
 10
303.891289
 20
24.949649
 30
0.0
 10
303.891289
 20
20.050397
 30
0.0
 10
300.992037
 20
20.050397
 30
0.0
 10
300.992037
 20
24.949649
 30
0.0
  0
LWPOLYLINE
  5
14c
100
AcDbEntity
  8
Layer_1
 62
7
100
AcDbPolyline
 90
5
 70
1
 10
296.050361
 20
24.949649
 30
0.0
 10
298.949613
 20
24.949649
 30
0.0
 10
298.949613
 20
20.050397
 30
0.0
 10
296.050361
 20
20.050397
 30
0.0
 10
296.050361
 20
24.949649
 30
0.0
  0
LWPOLYLINE
  5
14d
100
AcDbEntity
  8
Layer_1
 62
7
100
AcDbPolyline
 90
5
 70
1
 10
291.108712
 20
24.949649
 30
0.0
 10
294.007964
 20
24.949649
 30
0.0
 10
294.007964
 20
20.050397
 30
0.0
 10
291.108712
 20
20.050397
 30
0.0
 10
291.108712
 20
24.949649
 30
0.0
  0
LWPOLYLINE
  5
14e
100
AcDbEntity
  8
Layer_1
 62
7
100
AcDbPolyline
 90
5
 70
1
 10
338.099982
 20
39.949637
 30
0.0
 10
340.999234
 20
39.949637
 30
0.0
 10
340.999234
 20
35.050386
 30
0.0
 10
338.099982
 20
35.050386
 30
0.0
 10
338.099982
 20
39.949637
 30
0.0
  0
LWPOLYLINE
  5
14f
100
AcDbEntity
  8
Layer_1
 62
7
100
AcDbPolyline
 90
5
 70
1
 10
333.158306
 20
39.949637
 30
0.0
 10
336.057558
 20
39.949637
 30
0.0
 10
336.057558
 20
35.050386
 30
0.0
 10
333.158306
 20
35.050386
 30
0.0
 10
333.158306
 20
39.949637
 30
0.0
  0
LWPOLYLINE
  5
150
100
AcDbEntity
  8
Layer_1
 62
7
100
AcDbPolyline
 90
5
 70
1
 10
328.216657
 20
39.949637
 30
0.0
 10
331.115909
 20
39.949637
 30
0.0
 10
331.115909
 20
35.050386
 30
0.0
 10
328.216657
 20
35.050386
 30
0.0
 10
328.216657
 20
39.949637
 30
0.0
  0
LWPOLYLINE
  5
151
100
AcDbEntity
  8
Layer_1
 62
7
100
AcDbPolyline
 90
5
 70
1
 10
338.099982
 20
32.449610
 30
0.0
 10
340.999234
 20
32.449610
 30
0.0
 10
340.999234
 20
27.550358
 30
0.0
 10
338.099982
 20
27.550358
 30
0.0
 10
338.099982
 20
32.449610
 30
0.0
  0
LWPOLYLINE
  5
152
100
AcDbEntity
  8
Layer_1
 62
7
100
AcDbPolyline
 90
5
 70
1
 10
333.158306
 20
32.449610
 30
0.0
 10
336.057558
 20
32.449610
 30
0.0
 10
336.057558
 20
27.550358
 30
0.0
 10
333.158306
 20
27.550358
 30
0.0
 10
333.158306
 20
32.449610
 30
0.0
  0
LWPOLYLINE
  5
153
100
AcDbEntity
  8
Layer_1
 62
7
100
AcDbPolyline
 90
5
 70
1
 10
328.216657
 20
32.449610
 30
0.0
 10
331.115909
 20
32.449610
 30
0.0
 10
331.115909
 20
27.550358
 30
0.0
 10
328.216657
 20
27.550358
 30
0.0
 10
328.216657
 20
32.449610
 30
0.0
  0
LWPOLYLINE
  5
154
100
AcDbEntity
  8
Layer_1
 62
7
100
AcDbPolyline
 90
5
 70
1
 10
338.099982
 20
24.949649
 30
0.0
 10
340.999234
 20
24.949649
 30
0.0
 10
340.999234
 20
20.050397
 30
0.0
 10
338.099982
 20
20.050397
 30
0.0
 10
338.099982
 20
24.949649
 30
0.0
  0
SPLINE
  5
155
100
AcDbEntity
  8
Layer_1
 62
7
100
AcDbSpline
 70
8
 71
3
 72
8
 73
4
 74
0
 40
0
 40
0
 40
0
 40
0
 40
1
 40
1
 40
1
 40
1
 10
336.458368
 20
116.200006
 30
0.0
 10
336.458368
 20
115.500351
 30
0.0
 10
336.085107
 20
114.853844
 30
0.0
 10
335.479188
 20
114.504017
 30
0.0
  0
SPLINE
  5
156
100
AcDbEntity
  8
Layer_1
 62
7
100
AcDbSpline
 70
8
 71
3
 72
8
 73
4
 74
0
 40
0
 40
0
 40
0
 40
0
 40
1
 40
1
 40
1
 40
1
 10
335.479188
 20
114.504017
 30
0.0
 10
334.873270
 20
114.154189
 30
0.0
 10
334.126747
 20
114.154189
 30
0.0
 10
333.520828
 20
114.504017
 30
0.0
  0
SPLINE
  5
157
100
AcDbEntity
  8
Layer_1
 62
7
100
AcDbSpline
 70
8
 71
3
 72
8
 73
4
 74
0
 40
0
 40
0
 40
0
 40
0
 40
1
 40
1
 40
1
 40
1
 10
333.520828
 20
114.504017
 30
0.0
 10
332.914910
 20
114.853844
 30
0.0
 10
332.541648
 20
115.500351
 30
0.0
 10
332.541648
 20
116.200006
 30
0.0
  0
SPLINE
  5
158
100
AcDbEntity
  8
Layer_1
 62
7
100
AcDbSpline
 70
8
 71
3
 72
8
 73
4
 74
0
 40
0
 40
0
 40
0
 40
0
 40
1
 40
1
 40
1
 40
1
 10
332.541648
 20
116.200006
 30
0.0
 10
332.541648
 20
116.899661
 30
0.0
 10
332.914910
 20
117.546168
 30
0.0
 10
333.520828
 20
117.895995
 30
0.0
  0
SPLINE
  5
159
100
AcDbEntity
  8
Layer_1
 62
7
100
AcDbSpline
 70
8
 71
3
 72
8
 73
4
 74
0
 40
0
 40
0
 40
0
 40
0
 40
1
 40
1
 40
1
 40
1
 10
333.520828
 20
117.895995
 30
0.0
 10
334.126747
 20
118.245823
 30
0.0
 10
334.873270
 20
118.245823
 30
0.0
 10
335.479188
 20
117.895995
 30
0.0
  0
SPLINE
  5
15a
100
AcDbEntity
  8
Layer_1
 62
7
100
AcDbSpline
 70
8
 71
3
 72
8
 73
4
 74
0
 40
0
 40
0
 40
0
 40
0
 40
1
 40
1
 40
1
 40
1
 10
335.479188
 20
117.895995
 30
0.0
 10
336.085107
 20
117.546168
 30
0.0
 10
336.458368
 20
116.899661
 30
0.0
 10
336.458368
 20
116.200006
 30
0.0
  0
LWPOLYLINE
  5
15b
100
AcDbEntity
  8
Layer_1
 62
7
100
AcDbPolyline
 90
5
 70
1
 10
333.158306
 20
24.949649
 30
0.0
 10
336.057558
 20
24.949649
 30
0.0
 10
336.057558
 20
20.050397
 30
0.0
 10
333.158306
 20
20.050397
 30
0.0
 10
333.158306
 20
24.949649
 30
0.0
  0
SPLINE
  5
15c
100
AcDbEntity
  8
Layer_1
 62
7
100
AcDbSpline
 70
8
 71
3
 72
8
 73
4
 74
0
 40
0
 40
0
 40
0
 40
0
 40
1
 40
1
 40
1
 40
1
 10
149.751121
 20
127.219682
 30
0.0
 10
149.751121
 20
123.104419
 30
0.0
 10
146.415041
 20
119.768339
 30
0.0
 10
142.299777
 20
119.768339
 30
0.0
  0
SPLINE
  5
15d
100
AcDbEntity
  8
Layer_1
 62
7
100
AcDbSpline
 70
8
 71
3
 72
8
 73
4
 74
0
 40
0
 40
0
 40
0
 40
0
 40
1
 40
1
 40
1
 40
1
 10
142.299777
 20
119.768339
 30
0.0
 10
138.184514
 20
119.768339
 30
0.0
 10
134.848434
 20
123.104419
 30
0.0
 10
134.848433
 20
127.219682
 30
0.0
  0
SPLINE
  5
15e
100
AcDbEntity
  8
Layer_1
 62
7
100
AcDbSpline
 70
8
 71
3
 72
8
 73
4
 74
0
 40
0
 40
0
 40
0
 40
0
 40
1
 40
1
 40
1
 40
1
 10
134.848433
 20
127.219682
 30
0.0
 10
134.848433
 20
129.881791
 30
0.0
 10
136.268651
 20
132.341681
 30
0.0
 10
138.574105
 20
133.672735
 30
0.0
  0
SPLINE
  5
15f
100
AcDbEntity
  8
Layer_1
 62
7
100
AcDbSpline
 70
8
 71
3
 72
8
 73
4
 74
0
 40
0
 40
0
 40
0
 40
0
 40
1
 40
1
 40
1
 40
1
 10
138.574105
 20
133.672735
 30
0.0
 10
140.879559
 20
135.003790
 30
0.0
 10
143.719995
 20
135.003790
 30
0.0
 10
146.025449
 20
133.672735
 30
0.0
  0
SPLINE
  5
160
100
AcDbEntity
  8
Layer_1
 62
7
100
AcDbSpline
 70
8
 71
3
 72
8
 73
4
 74
0
 40
0
 40
0
 40
0
 40
0
 40
1
 40
1
 40
1
 40
1
 10
146.025449
 20
133.672735
 30
0.0
 10
148.330903
 20
132.341681
 30
0.0
 10
149.751121
 20
129.881791
 30
0.0
 10
149.751121
 20
127.219682
 30
0.0
  0
LWPOLYLINE
  5
161
100
AcDbEntity
  8
Layer_1
 62
7
100
AcDbPolyline
 90
5
 70
1
 10
328.216657
 20
24.949649
 30
0.0
 10
331.115909
 20
24.949649
 30
0.0
 10
331.115909
 20
20.050397
 30
0.0
 10
328.216657
 20
20.050397
 30
0.0
 10
328.216657
 20
24.949649
 30
0.0
  0
SPLINE
  5
162
100
AcDbEntity
  8
Layer_1
 62
7
100
AcDbSpline
 70
8
 71
3
 72
8
 73
4
 74
0
 40
0
 40
0
 40
0
 40
0
 40
1
 40
1
 40
1
 40
1
 10
81.807037
 20
229.342946
 30
0.0
 10
81.555153
 20
229.342946
 30
0.0
 10
81.327965
 20
229.313313
 30
0.0
 10
81.125470
 20
229.254046
 30
0.0
  0
SPLINE
  5
163
100
AcDbEntity
  8
Layer_1
 62
7
100
AcDbSpline
 70
8
 71
3
 72
8
 73
4
 74
0
 40
0
 40
0
 40
0
 40
0
 40
1
 40
1
 40
1
 40
1
 10
81.125470
 20
229.254046
 30
0.0
 10
80.922976
 20
229.189840
 30
0.0
 10
80.747645
 20
229.100940
 30
0.0
 10
80.599478
 20
228.987346
 30
0.0
  0
SPLINE
  5
164
100
AcDbEntity
  8
Layer_1
 62
7
100
AcDbSpline
 70
8
 71
3
 72
8
 73
4
 74
0
 40
0
 40
0
 40
0
 40
0
 40
1
 40
1
 40
1
 40
1
 10
80.599478
 20
228.987346
 30
0.0
 10
80.456251
 20
228.868813
 30
0.0
 10
80.345126
 20
228.725585
 30
0.0
 10
80.266103
 20
228.557663
 30
0.0
  0
SPLINE
  5
165
100
AcDbEntity
  8
Layer_1
 62
7
100
AcDbSpline
 70
8
 71
3
 72
8
 73
4
 74
0
 40
0
 40
0
 40
0
 40
0
 40
1
 40
1
 40
1
 40
1
 10
80.266103
 20
228.557663
 30
0.0
 10
80.187081
 20
228.389740
 30
0.0
 10
80.147570
 20
228.197124
 30
0.0
 10
80.147570
 20
227.979813
 30
0.0
  0
SPLINE
  5
166
100
AcDbEntity
  8
Layer_1
 62
7
100
AcDbSpline
 70
8
 71
3
 72
8
 73
4
 74
0
 40
0
 40
0
 40
0
 40
0
 40
1
 40
1
 40
1
 40
1
 10
80.147570
 20
227.979813
 30
0.0
 10
80.147570
 20
227.767440
 30
0.0
 10
80.187081
 20
227.577293
 30
0.0
 10
80.266103
 20
227.409371
 30
0.0
  0
SPLINE
  5
167
100
AcDbEntity
  8
Layer_1
 62
7
100
AcDbSpline
 70
8
 71
3
 72
8
 73
4
 74
0
 40
0
 40
0
 40
0
 40
0
 40
1
 40
1
 40
1
 40
1
 10
80.266103
 20
227.409371
 30
0.0
 10
80.345126
 20
227.236510
 30
0.0
 10
80.456251
 20
227.093282
 30
0.0
 10
80.599478
 20
226.979688
 30
0.0
  0
SPLINE
  5
168
100
AcDbEntity
  8
Layer_1
 62
7
100
AcDbSpline
 70
8
 71
3
 72
8
 73
4
 74
0
 40
0
 40
0
 40
0
 40
0
 40
1
 40
1
 40
1
 40
1
 10
80.599478
 20
226.979688
 30
0.0
 10
80.747645
 20
226.861154
 30
0.0
 10
80.922976
 20
226.772254
 30
0.0
 10
81.125470
 20
226.712988
 30
0.0
  0
SPLINE
  5
169
100
AcDbEntity
  8
Layer_1
 62
7
100
AcDbSpline
 70
8
 71
3
 72
8
 73
4
 74
0
 40
0
 40
0
 40
0
 40
0
 40
1
 40
1
 40
1
 40
1
 10
81.125470
 20
226.712988
 30
0.0
 10
81.327965
 20
226.648782
 30
0.0
 10
81.555153
 20
226.616679
 30
0.0
 10
81.807037
 20
226.616679
 30
0.0
  0
SPLINE
  5
16a
100
AcDbEntity
  8
Layer_1
 62
7
100
AcDbSpline
 70
8
 71
3
 72
8
 73
4
 74
0
 40
0
 40
0
 40
0
 40
0
 40
1
 40
1
 40
1
 40
1
 10
81.807037
 20
226.616679
 30
0.0
 10
82.058920
 20
226.616679
 30
0.0
 10
82.286109
 20
226.648782
 30
0.0
 10
82.488603
 20
226.712988
 30
0.0
  0
SPLINE
  5
16b
100
AcDbEntity
  8
Layer_1
 62
7
100
AcDbSpline
 70
8
 71
3
 72
8
 73
4
 74
0
 40
0
 40
0
 40
0
 40
0
 40
1
 40
1
 40
1
 40
1
 10
82.488603
 20
226.712988
 30
0.0
 10
82.696037
 20
226.772254
 30
0.0
 10
82.871367
 20
226.861154
 30
0.0
 10
83.014595
 20
226.979688
 30
0.0
  0
SPLINE
  5
16c
100
AcDbEntity
  8
Layer_1
 62
7
100
AcDbSpline
 70
8
 71
3
 72
8
 73
4
 74
0
 40
0
 40
0
 40
0
 40
0
 40
1
 40
1
 40
1
 40
1
 10
83.014595
 20
226.979688
 30
0.0
 10
83.162762
 20
227.093282
 30
0.0
 10
83.276356
 20
227.236510
 30
0.0
 10
83.355378
 20
227.409371
 30
0.0
  0
SPLINE
  5
16d
100
AcDbEntity
  8
Layer_1
 62
7
100
AcDbSpline
 70
8
 71
3
 72
8
 73
4
 74
0
 40
0
 40
0
 40
0
 40
0
 40
1
 40
1
 40
1
 40
1
 10
83.355378
 20
227.409371
 30
0.0
 10
83.434401
 20
227.577293
 30
0.0
 10
83.473912
 20
227.767440
 30
0.0
 10
83.473912
 20
227.979813
 30
0.0
  0
SPLINE
  5
16e
100
AcDbEntity
  8
Layer_1
 62
7
100
AcDbSpline
 70
8
 71
3
 72
8
 73
4
 74
0
 40
0
 40
0
 40
0
 40
0
 40
1
 40
1
 40
1
 40
1
 10
83.473912
 20
227.979813
 30
0.0
 10
83.473912
 20
228.197124
 30
0.0
 10
83.431931
 20
228.389740
 30
0.0
 10
83.347970
 20
228.557663
 30
0.0
  0
SPLINE
  5
16f
100
AcDbEntity
  8
Layer_1
 62
7
100
AcDbSpline
 70
8
 71
3
 72
8
 73
4
 74
0
 40
0
 40
0
 40
0
 40
0
 40
1
 40
1
 40
1
 40
1
 10
83.347970
 20
228.557663
 30
0.0
 10
83.268948
 20
228.725585
 30
0.0
 10
83.155353
 20
228.868813
 30
0.0
 10
83.007187
 20
228.987346
 30
0.0
  0
SPLINE
  5
170
100
AcDbEntity
  8
Layer_1
 62
7
100
AcDbSpline
 70
8
 71
3
 72
8
 73
4
 74
0
 40
0
 40
0
 40
0
 40
0
 40
1
 40
1
 40
1
 40
1
 10
83.007187
 20
228.987346
 30
0.0
 10
82.863959
 20
229.100940
 30
0.0
 10
82.688628
 20
229.189840
 30
0.0
 10
82.481195
 20
229.254046
 30
0.0
  0
SPLINE
  5
171
100
AcDbEntity
  8
Layer_1
 62
7
100
AcDbSpline
 70
8
 71
3
 72
8
 73
4
 74
0
 40
0
 40
0
 40
0
 40
0
 40
1
 40
1
 40
1
 40
1
 10
82.481195
 20
229.254046
 30
0.0
 10
82.278701
 20
229.313313
 30
0.0
 10
82.053981
 20
229.342946
 30
0.0
 10
81.807037
 20
229.342946
 30
0.0
  0
SPLINE
  5
172
100
AcDbEntity
  8
Layer_1
 62
7
100
AcDbSpline
 70
8
 71
3
 72
8
 73
4
 74
0
 40
0
 40
0
 40
0
 40
0
 40
1
 40
1
 40
1
 40
1
 10
81.807037
 20
225.423938
 30
0.0
 10
81.367476
 20
225.423938
 30
0.0
 10
80.979773
 20
225.490613
 30
0.0
 10
80.643928
 20
225.623963
 30
0.0
  0
SPLINE
  5
173
100
AcDbEntity
  8
Layer_1
 62
7
100
AcDbSpline
 70
8
 71
3
 72
8
 73
4
 74
0
 40
0
 40
0
 40
0
 40
0
 40
1
 40
1
 40
1
 40
1
 10
80.643928
 20
225.623963
 30
0.0
 10
80.313023
 20
225.752374
 30
0.0
 10
80.033976
 20
225.930174
 30
0.0
 10
79.806787
 20
226.157363
 30
0.0
  0
SPLINE
  5
174
100
AcDbEntity
  8
Layer_1
 62
7
100
AcDbSpline
 70
8
 71
3
 72
8
 73
4
 74
0
 40
0
 40
0
 40
0
 40
0
 40
1
 40
1
 40
1
 40
1
 10
79.806787
 20
226.157363
 30
0.0
 10
79.584537
 20
226.384552
 30
0.0
 10
79.416615
 20
226.656190
 30
0.0
 10
79.303020
 20
226.972279
 30
0.0
  0
SPLINE
  5
175
100
AcDbEntity
  8
Layer_1
 62
7
100
AcDbSpline
 70
8
 71
3
 72
8
 73
4
 74
0
 40
0
 40
0
 40
0
 40
0
 40
1
 40
1
 40
1
 40
1
 10
79.303020
 20
226.972279
 30
0.0
 10
79.189426
 20
227.283429
 30
0.0
 10
79.132628
 20
227.619274
 30
0.0
 10
79.132628
 20
227.979813
 30
0.0
  0
SPLINE
  5
176
100
AcDbEntity
  8
Layer_1
 62
7
100
AcDbSpline
 70
8
 71
3
 72
8
 73
4
 74
0
 40
0
 40
0
 40
0
 40
0
 40
1
 40
1
 40
1
 40
1
 10
79.132628
 20
227.979813
 30
0.0
 10
79.132628
 20
228.330474
 30
0.0
 10
79.189426
 20
228.661379
 30
0.0
 10
79.303020
 20
228.972529
 30
0.0
  0
SPLINE
  5
177
100
AcDbEntity
  8
Layer_1
 62
7
100
AcDbSpline
 70
8
 71
3
 72
8
 73
4
 74
0
 40
0
 40
0
 40
0
 40
0
 40
1
 40
1
 40
1
 40
1
 10
79.303020
 20
228.972529
 30
0.0
 10
79.416615
 20
229.283679
 30
0.0
 10
79.584537
 20
229.555318
 30
0.0
 10
79.806787
 20
229.787446
 30
0.0
  0
SPLINE
  5
178
100
AcDbEntity
  8
Layer_1
 62
7
100
AcDbSpline
 70
8
 71
3
 72
8
 73
4
 74
0
 40
0
 40
0
 40
0
 40
0
 40
1
 40
1
 40
1
 40
1
 10
79.806787
 20
229.787446
 30
0.0
 10
80.033976
 20
230.019574
 30
0.0
 10
80.313023
 20
230.202313
 30
0.0
 10
80.643928
 20
230.335663
 30
0.0
  0
SPLINE
  5
179
100
AcDbEntity
  8
Layer_1
 62
7
100
AcDbSpline
 70
8
 71
3
 72
8
 73
4
 74
0
 40
0
 40
0
 40
0
 40
0
 40
1
 40
1
 40
1
 40
1
 10
80.643928
 20
230.335663
 30
0.0
 10
80.979773
 20
230.469013
 30
0.0
 10
81.367476
 20
230.535688
 30
0.0
 10
81.807037
 20
230.535688
 30
0.0
  0
SPLINE
  5
17a
100
AcDbEntity
  8
Layer_1
 62
7
100
AcDbSpline
 70
8
 71
3
 72
8
 73
4
 74
0
 40
0
 40
0
 40
0
 40
0
 40
1
 40
1
 40
1
 40
1
 10
81.807037
 20
230.535688
 30
0.0
 10
82.246598
 20
230.535688
 30
0.0
 10
82.631831
 20
230.466543
 30
0.0
 10
82.962737
 20
230.328254
 30
0.0
  0
SPLINE
  5
17b
100
AcDbEntity
  8
Layer_1
 62
7
100
AcDbSpline
 70
8
 71
3
 72
8
 73
4
 74
0
 40
0
 40
0
 40
0
 40
0
 40
1
 40
1
 40
1
 40
1
 10
82.962737
 20
230.328254
 30
0.0
 10
83.298581
 20
230.189965
 30
0.0
 10
83.580098
 20
230.004757
 30
0.0
 10
83.807287
 20
229.772629
 30
0.0
  0
SPLINE
  5
17c
100
AcDbEntity
  8
Layer_1
 62
7
100
AcDbSpline
 70
8
 71
3
 72
8
 73
4
 74
0
 40
0
 40
0
 40
0
 40
0
 40
1
 40
1
 40
1
 40
1
 10
83.807287
 20
229.772629
 30
0.0
 10
84.034476
 20
229.535563
 30
0.0
 10
84.204867
 20
229.263924
 30
0.0
 10
84.318462
 20
228.957713
 30
0.0
  0
SPLINE
  5
17d
100
AcDbEntity
  8
Layer_1
 62
7
100
AcDbSpline
 70
8
 71
3
 72
8
 73
4
 74
0
 40
0
 40
0
 40
0
 40
0
 40
1
 40
1
 40
1
 40
1
 10
84.318462
 20
228.957713
 30
0.0
 10
84.432056
 20
228.646563
 30
0.0
 10
84.488853
 20
228.320596
 30
0.0
 10
84.488853
 20
227.979813
 30
0.0
  0
SPLINE
  5
17e
100
AcDbEntity
  8
Layer_1
 62
7
100
AcDbSpline
 70
8
 71
3
 72
8
 73
4
 74
0
 40
0
 40
0
 40
0
 40
0
 40
1
 40
1
 40
1
 40
1
 10
84.488853
 20
227.979813
 30
0.0
 10
84.488853
 20
227.629152
 30
0.0
 10
84.432056
 20
227.298246
 30
0.0
 10
84.318462
 20
226.987096
 30
0.0
  0
SPLINE
  5
17f
100
AcDbEntity
  8
Layer_1
 62
7
100
AcDbSpline
 70
8
 71
3
 72
8
 73
4
 74
0
 40
0
 40
0
 40
0
 40
0
 40
1
 40
1
 40
1
 40
1
 10
84.318462
 20
226.987096
 30
0.0
 10
84.204867
 20
226.675946
 30
0.0
 10
84.034476
 20
226.404307
 30
0.0
 10
83.807287
 20
226.172179
 30
0.0
  0
SPLINE
  5
180
100
AcDbEntity
  8
Layer_1
 62
7
100
AcDbSpline
 70
8
 71
3
 72
8
 73
4
 74
0
 40
0
 40
0
 40
0
 40
0
 40
1
 40
1
 40
1
 40
1
 10
83.807287
 20
226.172179
 30
0.0
 10
83.580098
 20
225.940052
 30
0.0
 10
83.298581
 20
225.757313
 30
0.0
 10
82.962737
 20
225.623963
 30
0.0
  0
SPLINE
  5
181
100
AcDbEntity
  8
Layer_1
 62
7
100
AcDbSpline
 70
8
 71
3
 72
8
 73
4
 74
0
 40
0
 40
0
 40
0
 40
0
 40
1
 40
1
 40
1
 40
1
 10
82.962737
 20
225.623963
 30
0.0
 10
82.631831
 20
225.490613
 30
0.0
 10
82.246598
 20
225.423938
 30
0.0
 10
81.807037
 20
225.423938
 30
0.0
  0
SPLINE
  5
182
100
AcDbEntity
  8
Layer_1
 62
7
100
AcDbSpline
 70
8
 71
3
 72
8
 73
4
 74
0
 40
0
 40
0
 40
0
 40
0
 40
1
 40
1
 40
1
 40
1
 10
79.132628
 20
222.453204
 30
0.0
 10
79.132628
 20
222.813743
 30
0.0
 10
79.182017
 20
223.124893
 30
0.0
 10
79.280795
 20
223.386654
 30
0.0
  0
SPLINE
  5
183
100
AcDbEntity
  8
Layer_1
 62
7
100
AcDbSpline
 70
8
 71
3
 72
8
 73
4
 74
0
 40
0
 40
0
 40
0
 40
0
 40
1
 40
1
 40
1
 40
1
 10
79.280795
 20
223.386654
 30
0.0
 10
79.384512
 20
223.648415
 30
0.0
 10
79.525270
 20
223.865726
 30
0.0
 10
79.703070
 20
224.038587
 30
0.0
  0
SPLINE
  5
184
100
AcDbEntity
  8
Layer_1
 62
7
100
AcDbSpline
 70
8
 71
3
 72
8
 73
4
 74
0
 40
0
 40
0
 40
0
 40
0
 40
1
 40
1
 40
1
 40
1
 10
79.703070
 20
224.038587
 30
0.0
 10
79.885809
 20
224.206510
 30
0.0
 10
80.100651
 20
224.332451
 30
0.0
 10
80.347595
 20
224.416412
 30
0.0
  0
SPLINE
  5
185
100
AcDbEntity
  8
Layer_1
 62
7
100
AcDbSpline
 70
8
 71
3
 72
8
 73
4
 74
0
 40
0
 40
0
 40
0
 40
0
 40
1
 40
1
 40
1
 40
1
 10
80.347595
 20
224.416412
 30
0.0
 10
80.599478
 20
224.495435
 30
0.0
 10
80.876056
 20
224.534946
 30
0.0
 10
81.177328
 20
224.534946
 30
0.0
  0
SPLINE
  5
186
100
AcDbEntity
  8
Layer_1
 62
7
100
AcDbSpline
 70
8
 71
3
 72
8
 73
4
 74
0
 40
0
 40
0
 40
0
 40
0
 40
1
 40
1
 40
1
 40
1
 10
81.273637
 20
223.379246
 30
0.0
 10
81.066203
 20
223.379246
 30
0.0
 10
80.888403
 20
223.357021
 30
0.0
 10
80.740237
 20
223.312571
 30
0.0
  0
SPLINE
  5
187
100
AcDbEntity
  8
Layer_1
 62
7
100
AcDbSpline
 70
8
 71
3
 72
8
 73
4
 74
0
 40
0
 40
0
 40
0
 40
0
 40
1
 40
1
 40
1
 40
1
 10
80.740237
 20
223.312571
 30
0.0
 10
80.597009
 20
223.263182
 30
0.0
 10
80.478476
 20
223.198976
 30
0.0
 10
80.384637
 20
223.119954
 30
0.0
  0
SPLINE
  5
188
100
AcDbEntity
  8
Layer_1
 62
7
100
AcDbSpline
 70
8
 71
3
 72
8
 73
4
 74
0
 40
0
 40
0
 40
0
 40
0
 40
1
 40
1
 40
1
 40
1
 10
80.384637
 20
223.119954
 30
0.0
 10
80.295737
 20
223.035993
 30
0.0
 10
80.231531
 20
222.937215
 30
0.0
 10
80.192020
 20
222.823621
 30
0.0
  0
SPLINE
  5
189
100
AcDbEntity
  8
Layer_1
 62
7
100
AcDbSpline
 70
8
 71
3
 72
8
 73
4
 74
0
 40
0
 40
0
 40
0
 40
0
 40
1
 40
1
 40
1
 40
1
 10
80.192020
 20
222.823621
 30
0.0
 10
80.152509
 20
222.705087
 30
0.0
 10
80.132753
 20
222.576676
 30
0.0
 10
80.132753
 20
222.438387
 30
0.0
  0
SPLINE
  5
18a
100
AcDbEntity
  8
Layer_1
 62
7
100
AcDbSpline
 70
8
 71
3
 72
8
 73
4
 74
0
 40
0
 40
0
 40
0
 40
0
 40
1
 40
1
 40
1
 40
1
 10
80.132753
 20
222.438387
 30
0.0
 10
80.132753
 20
222.156871
 30
0.0
 10
80.219184
 20
221.929682
 30
0.0
 10
80.392045
 20
221.756821
 30
0.0
  0
SPLINE
  5
18b
100
AcDbEntity
  8
Layer_1
 62
7
100
AcDbSpline
 70
8
 71
3
 72
8
 73
4
 74
0
 40
0
 40
0
 40
0
 40
0
 40
1
 40
1
 40
1
 40
1
 10
80.392045
 20
221.756821
 30
0.0
 10
80.564906
 20
221.579021
 30
0.0
 10
80.858770
 20
221.490121
 30
0.0
 10
81.273637
 20
221.490121
 30
0.0
  0
LWPOLYLINE
  5
18c
100
AcDbEntity
  8
Layer_1
 62
7
100
AcDbPolyline
 90
5
 70
1
 10
141.862916
 20
129.146857
 30
0.0
 10
142.782227
 20
129.146857
 30
0.0
 10
142.782227
 20
125.327546
 30
0.0
 10
141.862916
 20
125.327546
 30
0.0
 10
141.862916
 20
129.146857
 30
0.0
  0
SPLINE
  5
18d
100
AcDbEntity
  8
Layer_1
 62
7
100
AcDbSpline
 70
8
 71
3
 72
8
 73
4
 74
0
 40
0
 40
0
 40
0
 40
0
 40
1
 40
1
 40
1
 40
1
 10
81.177328
 20
220.334421
 30
0.0
 10
80.876056
 20
220.334421
 30
0.0
 10
80.599478
 20
220.376401
 30
0.0
 10
80.347595
 20
220.460362
 30
0.0
  0
SPLINE
  5
18e
100
AcDbEntity
  8
Layer_1
 62
7
100
AcDbSpline
 70
8
 71
3
 72
8
 73
4
 74
0
 40
0
 40
0
 40
0
 40
0
 40
1
 40
1
 40
1
 40
1
 10
80.347595
 20
220.460362
 30
0.0
 10
80.095712
 20
220.544323
 30
0.0
 10
79.878401
 20
220.672735
 30
0.0
 10
79.695662
 20
220.845596
 30
0.0
  0
SPLINE
  5
18f
100
AcDbEntity
  8
Layer_1
 62
7
100
AcDbSpline
 70
8
 71
3
 72
8
 73
4
 74
0
 40
0
 40
0
 40
0
 40
0
 40
1
 40
1
 40
1
 40
1
 10
79.695662
 20
220.845596
 30
0.0
 10
79.517862
 20
221.018457
 30
0.0
 10
79.379573
 20
221.238237
 30
0.0
 10
79.280795
 20
221.504937
 30
0.0
  0
SPLINE
  5
190
100
AcDbEntity
  8
Layer_1
 62
7
100
AcDbSpline
 70
8
 71
3
 72
8
 73
4
 74
0
 40
0
 40
0
 40
0
 40
0
 40
1
 40
1
 40
1
 40
1
 10
79.280795
 20
221.504937
 30
0.0
 10
79.182017
 20
221.771637
 30
0.0
 10
79.132628
 20
222.087726
 30
0.0
 10
79.132628
 20
222.453204
 30
0.0
  0
LWPOLYLINE
  5
191
100
AcDbEntity
  8
Layer_1
 62
7
100
AcDbPolyline
 90
4
 70
0
 10
81.177328
 20
224.534946
 30
0.0
 10
84.370320
 20
224.534946
 30
0.0
 10
84.370320
 20
223.379246
 30
0.0
 10
81.273637
 20
223.379246
 30
0.0
  0
SPLINE
  5
192
100
AcDbEntity
  8
Layer_1
 62
7
100
AcDbSpline
 70
8
 71
3
 72
8
 73
4
 74
0
 40
0
 40
0
 40
0
 40
0
 40
1
 40
1
 40
1
 40
1
 10
84.429587
 20
217.719287
 30
0.0
 10
84.429587
 20
216.948820
 30
0.0
 10
84.291298
 20
216.358623
 30
0.0
 10
84.014720
 20
215.948695
 30
0.0
  0
SPLINE
  5
193
100
AcDbEntity
  8
Layer_1
 62
7
100
AcDbSpline
 70
8
 71
3
 72
8
 73
4
 74
0
 40
0
 40
0
 40
0
 40
0
 40
1
 40
1
 40
1
 40
1
 10
84.014720
 20
215.948695
 30
0.0
 10
83.743081
 20
215.538767
 30
0.0
 10
83.318337
 20
215.333804
 30
0.0
 10
82.740487
 20
215.333804
 30
0.0
  0
SPLINE
  5
194
100
AcDbEntity
  8
Layer_1
 62
7
100
AcDbSpline
 70
8
 71
3
 72
8
 73
4
 74
0
 40
0
 40
0
 40
0
 40
0
 40
1
 40
1
 40
1
 40
1
 10
82.740487
 20
215.333804
 30
0.0
 10
82.379948
 20
215.333804
 30
0.0
 10
82.086084
 20
215.417765
 30
0.0
 10
81.858895
 20
215.585687
 30
0.0
  0
SPLINE
  5
195
100
AcDbEntity
  8
Layer_1
 62
7
100
AcDbSpline
 70
8
 71
3
 72
8
 73
4
 74
0
 40
0
 40
0
 40
0
 40
0
 40
1
 40
1
 40
1
 40
1
 10
81.858895
 20
215.585687
 30
0.0
 10
81.636645
 20
215.748670
 30
0.0
 10
81.461315
 20
215.985737
 30
0.0
 10
81.332903
 20
216.296887
 30
0.0
  0
SPLINE
  5
196
100
AcDbEntity
  8
Layer_1
 62
7
100
AcDbSpline
 70
8
 71
3
 72
8
 73
4
 74
0
 40
0
 40
0
 40
0
 40
0
 40
1
 40
1
 40
1
 40
1
 10
81.332903
 20
216.296887
 30
0.0
 10
81.204492
 20
216.193170
 30
0.0
 10
81.056326
 20
216.084515
 30
0.0
 10
80.888403
 20
215.970920
 30
0.0
  0
SPLINE
  5
197
100
AcDbEntity
  8
Layer_1
 62
7
100
AcDbSpline
 70
8
 71
3
 72
8
 73
4
 74
0
 40
0
 40
0
 40
0
 40
0
 40
1
 40
1
 40
1
 40
1
 10
80.888403
 20
215.970920
 30
0.0
 10
80.725420
 20
215.857326
 30
0.0
 10
80.552559
 20
215.746201
 30
0.0
 10
80.369820
 20
215.637545
 30
0.0
  0
SPLINE
  5
198
100
AcDbEntity
  8
Layer_1
 62
7
100
AcDbSpline
 70
8
 71
3
 72
8
 73
4
 74
0
 40
0
 40
0
 40
0
 40
0
 40
1
 40
1
 40
1
 40
1
 10
80.369820
 20
215.637545
 30
0.0
 10
80.192020
 20
215.523951
 30
0.0
 10
80.004342
 20
215.415295
 30
0.0
 10
79.806787
 20
215.311579
 30
0.0
  0
SPLINE
  5
199
100
AcDbEntity
  8
Layer_1
 62
7
100
AcDbSpline
 70
8
 71
3
 72
8
 73
4
 74
0
 40
0
 40
0
 40
0
 40
0
 40
1
 40
1
 40
1
 40
1
 10
79.806787
 20
215.311579
 30
0.0
 10
79.614170
 20
215.207862
 30
0.0
 10
79.424023
 20
215.111554
 30
0.0
 10
79.236345
 20
215.022654
 30
0.0
  0
SPLINE
  5
19a
100
AcDbEntity
  8
Layer_1
 62
7
100
AcDbSpline
 70
8
 71
3
 72
8
 73
4
 74
0
 40
0
 40
0
 40
0
 40
0
 40
1
 40
1
 40
1
 40
1
 10
79.236345
 20
216.319112
 30
0.0
 10
79.404267
 20
216.412951
 30
0.0
 10
79.574659
 20
216.509259
 30
0.0
 10
79.747520
 20
216.608037
 30
0.0
  0
SPLINE
  5
19b
100
AcDbEntity
  8
Layer_1
 62
7
100
AcDbSpline
 70
8
 71
3
 72
8
 73
4
 74
0
 40
0
 40
0
 40
0
 40
0
 40
1
 40
1
 40
1
 40
1
 10
79.747520
 20
216.608037
 30
0.0
 10
79.920381
 20
216.701876
 30
0.0
 10
80.088303
 20
216.800654
 30
0.0
 10
80.251287
 20
216.904370
 30
0.0
  0
SPLINE
  5
19c
100
AcDbEntity
  8
Layer_1
 62
7
100
AcDbSpline
 70
8
 71
3
 72
8
 73
4
 74
0
 40
0
 40
0
 40
0
 40
0
 40
1
 40
1
 40
1
 40
1
 10
80.251287
 20
216.904370
 30
0.0
 10
80.414270
 20
217.003148
 30
0.0
 10
80.567376
 20
217.101926
 30
0.0
 10
80.710603
 20
217.200704
 30
0.0
  0
SPLINE
  5
19d
100
AcDbEntity
  8
Layer_1
 62
7
100
AcDbSpline
 70
8
 71
3
 72
8
 73
4
 74
0
 40
0
 40
0
 40
0
 40
0
 40
1
 40
1
 40
1
 40
1
 10
80.710603
 20
217.200704
 30
0.0
 10
80.858770
 20
217.299481
 30
0.0
 10
80.992120
 20
217.398259
 30
0.0
 10
81.110653
 20
217.497037
 30
0.0
  0
LWPOLYLINE
  5
19e
100
AcDbEntity
  8
Layer_1
 62
7
100
AcDbPolyline
 90
4
 70
0
 10
81.273637
 20
221.490121
 30
0.0
 10
84.370320
 20
221.490121
 30
0.0
 10
84.370320
 20
220.334421
 30
0.0
 10
81.177328
 20
220.334421
 30
0.0
  0
SPLINE
  5
19f
100
AcDbEntity
  8
Layer_1
 62
7
100
AcDbSpline
 70
8
 71
3
 72
8
 73
4
 74
0
 40
0
 40
0
 40
0
 40
0
 40
1
 40
1
 40
1
 40
1
 10
84.296237
 20
219.223179
 30
0.0
 10
84.345626
 20
218.971295
 30
0.0
 10
84.380198
 20
218.712004
 30
0.0
 10
84.399953
 20
218.445304
 30
0.0
  0
SPLINE
  5
1a0
100
AcDbEntity
  8
Layer_1
 62
7
100
AcDbSpline
 70
8
 71
3
 72
8
 73
4
 74
0
 40
0
 40
0
 40
0
 40
0
 40
1
 40
1
 40
1
 40
1
 10
84.399953
 20
218.445304
 30
0.0
 10
84.419709
 20
218.173665
 30
0.0
 10
84.429587
 20
217.931659
 30
0.0
 10
84.429587
 20
217.719287
 30
0.0
  0
LWPOLYLINE
  5
1a1
100
AcDbEntity
  8
Layer_1
 62
7
100
AcDbPolyline
 90
2
 70
0
 10
79.236345
 20
215.022654
 30
0.0
 10
79.236345
 20
216.319112
 30
0.0
  0
SPLINE
  5
1a2
100
AcDbEntity
  8
Layer_1
 62
7
100
AcDbSpline
 70
8
 71
3
 72
8
 73
4
 74
0
 40
0
 40
0
 40
0
 40
0
 40
1
 40
1
 40
1
 40
1
 10
83.444278
 20
217.652612
 30
0.0
 10
83.444278
 20
217.736573
 30
0.0
 10
83.441809
 20
217.813126
 30
0.0
 10
83.436870
 20
217.882270
 30
0.0
  0
SPLINE
  5
1a3
100
AcDbEntity
  8
Layer_1
 62
7
100
AcDbSpline
 70
8
 71
3
 72
8
 73
4
 74
0
 40
0
 40
0
 40
0
 40
0
 40
1
 40
1
 40
1
 40
1
 10
83.436870
 20
217.882270
 30
0.0
 10
83.431931
 20
217.946476
 30
0.0
 10
83.426992
 20
218.008212
 30
0.0
 10
83.422053
 20
218.067479
 30
0.0
  0
SPLINE
  5
1a4
100
AcDbEntity
  8
Layer_1
 62
7
100
AcDbSpline
 70
8
 71
3
 72
8
 73
4
 74
0
 40
0
 40
0
 40
0
 40
0
 40
1
 40
1
 40
1
 40
1
 10
82.029287
 20
217.741512
 30
0.0
 10
82.029287
 20
217.306890
 30
0.0
 10
82.083615
 20
216.995740
 30
0.0
 10
82.192270
 20
216.808062
 30
0.0
  0
SPLINE
  5
1a5
100
AcDbEntity
  8
Layer_1
 62
7
100
AcDbSpline
 70
8
 71
3
 72
8
 73
4
 74
0
 40
0
 40
0
 40
0
 40
0
 40
1
 40
1
 40
1
 40
1
 10
82.192270
 20
216.808062
 30
0.0
 10
82.300926
 20
216.620384
 30
0.0
 10
82.486134
 20
216.526545
 30
0.0
 10
82.747895
 20
216.526545
 30
0.0
  0
SPLINE
  5
1a6
100
AcDbEntity
  8
Layer_1
 62
7
100
AcDbSpline
 70
8
 71
3
 72
8
 73
4
 74
0
 40
0
 40
0
 40
0
 40
0
 40
1
 40
1
 40
1
 40
1
 10
82.747895
 20
216.526545
 30
0.0
 10
82.999778
 20
216.526545
 30
0.0
 10
83.177578
 20
216.622854
 30
0.0
 10
83.281295
 20
216.815470
 30
0.0
  0
SPLINE
  5
1a7
100
AcDbEntity
  8
Layer_1
 62
7
100
AcDbSpline
 70
8
 71
3
 72
8
 73
4
 74
0
 40
0
 40
0
 40
0
 40
0
 40
1
 40
1
 40
1
 40
1
 10
83.281295
 20
216.815470
 30
0.0
 10
83.389951
 20
217.003148
 30
0.0
 10
83.444278
 20
217.282195
 30
0.0
 10
83.444278
 20
217.652612
 30
0.0
  0
LWPOLYLINE
  5
1a8
100
AcDbEntity
  8
Layer_1
 62
7
100
AcDbPolyline
 90
5
 70
0
 10
81.110653
 20
217.497037
 30
0.0
 10
81.110653
 20
218.067479
 30
0.0
 10
79.236345
 20
218.067479
 30
0.0
 10
79.236345
 20
219.223179
 30
0.0
 10
84.296237
 20
219.223179
 30
0.0
  0
SPLINE
  5
1a9
100
AcDbEntity
  8
Layer_1
 62
7
100
AcDbSpline
 70
8
 71
3
 72
8
 73
4
 74
0
 40
0
 40
0
 40
0
 40
0
 40
1
 40
1
 40
1
 40
1
 10
80.117937
 20
212.881648
 30
0.0
 10
80.117937
 20
212.718665
 30
0.0
 10
80.130284
 20
212.585315
 30
0.0
 10
80.154978
 20
212.481598
 30
0.0
  0
SPLINE
  5
1aa
100
AcDbEntity
  8
Layer_1
 62
7
100
AcDbSpline
 70
8
 71
3
 72
8
 73
4
 74
0
 40
0
 40
0
 40
0
 40
0
 40
1
 40
1
 40
1
 40
1
 10
80.154978
 20
212.481598
 30
0.0
 10
80.184612
 20
212.372942
 30
0.0
 10
80.221653
 20
212.286512
 30
0.0
 10
80.266103
 20
212.222306
 30
0.0
  0
SPLINE
  5
1ab
100
AcDbEntity
  8
Layer_1
 62
7
100
AcDbSpline
 70
8
 71
3
 72
8
 73
4
 74
0
 40
0
 40
0
 40
0
 40
0
 40
1
 40
1
 40
1
 40
1
 10
80.266103
 20
212.222306
 30
0.0
 10
80.315492
 20
212.158101
 30
0.0
 10
80.372290
 20
212.113651
 30
0.0
 10
80.436495
 20
212.088956
 30
0.0
  0
SPLINE
  5
1ac
100
AcDbEntity
  8
Layer_1
 62
7
100
AcDbSpline
 70
8
 71
3
 72
8
 73
4
 74
0
 40
0
 40
0
 40
0
 40
0
 40
1
 40
1
 40
1
 40
1
 10
80.436495
 20
212.088956
 30
0.0
 10
80.500701
 20
212.064262
 30
0.0
 10
80.572315
 20
212.051915
 30
0.0
 10
80.651337
 20
212.051915
 30
0.0
  0
SPLINE
  5
1ad
100
AcDbEntity
  8
Layer_1
 62
7
100
AcDbSpline
 70
8
 71
3
 72
8
 73
4
 74
0
 40
0
 40
0
 40
0
 40
0
 40
1
 40
1
 40
1
 40
1
 10
80.651337
 20
212.051915
 30
0.0
 10
80.819259
 20
212.051915
 30
0.0
 10
80.957548
 20
212.130937
 30
0.0
 10
81.066203
 20
212.288981
 30
0.0
  0
SPLINE
  5
1ae
100
AcDbEntity
  8
Layer_1
 62
7
100
AcDbSpline
 70
8
 71
3
 72
8
 73
4
 74
0
 40
0
 40
0
 40
0
 40
0
 40
1
 40
1
 40
1
 40
1
 10
81.066203
 20
212.288981
 30
0.0
 10
81.179798
 20
212.447026
 30
0.0
 10
81.300801
 20
212.718665
 30
0.0
 10
81.429212
 20
213.103898
 30
0.0
  0
SPLINE
  5
1af
100
AcDbEntity
  8
Layer_1
 62
7
100
AcDbSpline
 70
8
 71
3
 72
8
 73
4
 74
0
 40
0
 40
0
 40
0
 40
0
 40
1
 40
1
 40
1
 40
1
 10
81.429212
 20
213.103898
 30
0.0
 10
81.488478
 20
213.271820
 30
0.0
 10
81.555153
 20
213.439742
 30
0.0
 10
81.629237
 20
213.607665
 30
0.0
  0
SPLINE
  5
1b0
100
AcDbEntity
  8
Layer_1
 62
7
100
AcDbSpline
 70
8
 71
3
 72
8
 73
4
 74
0
 40
0
 40
0
 40
0
 40
0
 40
1
 40
1
 40
1
 40
1
 10
81.629237
 20
213.607665
 30
0.0
 10
81.708259
 20
213.775587
 30
0.0
 10
81.804567
 20
213.926223
 30
0.0
 10
81.918162
 20
214.059573
 30
0.0
  0
SPLINE
  5
1b1
100
AcDbEntity
  8
Layer_1
 62
7
100
AcDbSpline
 70
8
 71
3
 72
8
 73
4
 74
0
 40
0
 40
0
 40
0
 40
0
 40
1
 40
1
 40
1
 40
1
 10
81.918162
 20
214.059573
 30
0.0
 10
82.036695
 20
214.192923
 30
0.0
 10
82.177453
 20
214.301578
 30
0.0
 10
82.340437
 20
214.385540
 30
0.0
  0
SPLINE
  5
1b2
100
AcDbEntity
  8
Layer_1
 62
7
100
AcDbSpline
 70
8
 71
3
 72
8
 73
4
 74
0
 40
0
 40
0
 40
0
 40
0
 40
1
 40
1
 40
1
 40
1
 10
82.340437
 20
214.385540
 30
0.0
 10
82.508359
 20
214.469501
 30
0.0
 10
82.710853
 20
214.511481
 30
0.0
 10
82.947920
 20
214.511481
 30
0.0
  0
SPLINE
  5
1b3
100
AcDbEntity
  8
Layer_1
 62
7
100
AcDbSpline
 70
8
 71
3
 72
8
 73
4
 74
0
 40
0
 40
0
 40
0
 40
0
 40
1
 40
1
 40
1
 40
1
 10
82.947920
 20
214.511481
 30
0.0
 10
83.184987
 20
214.511481
 30
0.0
 10
83.397359
 20
214.467031
 30
0.0
 10
83.585037
 20
214.378131
 30
0.0
  0
SPLINE
  5
1b4
100
AcDbEntity
  8
Layer_1
 62
7
100
AcDbSpline
 70
8
 71
3
 72
8
 73
4
 74
0
 40
0
 40
0
 40
0
 40
0
 40
1
 40
1
 40
1
 40
1
 10
83.585037
 20
214.378131
 30
0.0
 10
83.777653
 20
214.289231
 30
0.0
 10
83.940637
 20
214.163290
 30
0.0
 10
84.073987
 20
214.000306
 30
0.0
  0
SPLINE
  5
1b5
100
AcDbEntity
  8
Layer_1
 62
7
100
AcDbSpline
 70
8
 71
3
 72
8
 73
4
 74
0
 40
0
 40
0
 40
0
 40
0
 40
1
 40
1
 40
1
 40
1
 10
84.073987
 20
214.000306
 30
0.0
 10
84.207337
 20
213.837323
 30
0.0
 10
84.308584
 20
213.639767
 30
0.0
 10
84.377728
 20
213.407640
 30
0.0
  0
SPLINE
  5
1b6
100
AcDbEntity
  8
Layer_1
 62
7
100
AcDbSpline
 70
8
 71
3
 72
8
 73
4
 74
0
 40
0
 40
0
 40
0
 40
0
 40
1
 40
1
 40
1
 40
1
 10
84.377728
 20
213.407640
 30
0.0
 10
84.451812
 20
213.175512
 30
0.0
 10
84.488853
 20
212.913751
 30
0.0
 10
84.488853
 20
212.622356
 30
0.0
  0
SPLINE
  5
1b7
100
AcDbEntity
  8
Layer_1
 62
7
100
AcDbSpline
 70
8
 71
3
 72
8
 73
4
 74
0
 40
0
 40
0
 40
0
 40
0
 40
1
 40
1
 40
1
 40
1
 10
84.488853
 20
212.622356
 30
0.0
 10
84.488853
 20
212.276634
 30
0.0
 10
84.451812
 20
211.977831
 30
0.0
 10
84.377728
 20
211.725948
 30
0.0
  0
SPLINE
  5
1b8
100
AcDbEntity
  8
Layer_1
 62
7
100
AcDbSpline
 70
8
 71
3
 72
8
 73
4
 74
0
 40
0
 40
0
 40
0
 40
0
 40
1
 40
1
 40
1
 40
1
 10
84.377728
 20
211.725948
 30
0.0
 10
84.303645
 20
211.474065
 30
0.0
 10
84.222153
 20
211.266631
 30
0.0
 10
84.133253
 20
211.103648
 30
0.0
  0
SPLINE
  5
1b9
100
AcDbEntity
  8
Layer_1
 62
7
100
AcDbSpline
 70
8
 71
3
 72
8
 73
4
 74
0
 40
0
 40
0
 40
0
 40
0
 40
1
 40
1
 40
1
 40
1
 10
83.222028
 20
211.437023
 30
0.0
 10
83.296112
 20
211.580251
 30
0.0
 10
83.360317
 20
211.740765
 30
0.0
 10
83.414645
 20
211.918565
 30
0.0
  0
SPLINE
  5
1ba
100
AcDbEntity
  8
Layer_1
 62
7
100
AcDbSpline
 70
8
 71
3
 72
8
 73
4
 74
0
 40
0
 40
0
 40
0
 40
0
 40
1
 40
1
 40
1
 40
1
 10
83.414645
 20
211.918565
 30
0.0
 10
83.473912
 20
212.091426
 30
0.0
 10
83.503545
 20
212.301328
 30
0.0
 10
83.503545
 20
212.548273
 30
0.0
  0
SPLINE
  5
1bb
100
AcDbEntity
  8
Layer_1
 62
7
100
AcDbSpline
 70
8
 71
3
 72
8
 73
4
 74
0
 40
0
 40
0
 40
0
 40
0
 40
1
 40
1
 40
1
 40
1
 10
83.503545
 20
212.548273
 30
0.0
 10
83.503545
 20
212.824851
 30
0.0
 10
83.464034
 20
213.024876
 30
0.0
 10
83.385012
 20
213.148348
 30
0.0
  0
SPLINE
  5
1bc
100
AcDbEntity
  8
Layer_1
 62
7
100
AcDbSpline
 70
8
 71
3
 72
8
 73
4
 74
0
 40
0
 40
0
 40
0
 40
0
 40
1
 40
1
 40
1
 40
1
 10
83.385012
 20
213.148348
 30
0.0
 10
83.310928
 20
213.266881
 30
0.0
 10
83.194865
 20
213.326148
 30
0.0
 10
83.036820
 20
213.326148
 30
0.0
  0
SPLINE
  5
1bd
100
AcDbEntity
  8
Layer_1
 62
7
100
AcDbSpline
 70
8
 71
3
 72
8
 73
4
 74
0
 40
0
 40
0
 40
0
 40
0
 40
1
 40
1
 40
1
 40
1
 10
83.036820
 20
213.326148
 30
0.0
 10
82.942981
 20
213.326148
 30
0.0
 10
82.863959
 20
213.303923
 30
0.0
 10
82.799753
 20
213.259473
 30
0.0
  0
SPLINE
  5
1be
100
AcDbEntity
  8
Layer_1
 62
7
100
AcDbSpline
 70
8
 71
3
 72
8
 73
4
 74
0
 40
0
 40
0
 40
0
 40
0
 40
1
 40
1
 40
1
 40
1
 10
82.799753
 20
213.259473
 30
0.0
 10
82.735548
 20
213.215023
 30
0.0
 10
82.676281
 20
213.153287
 30
0.0
 10
82.621953
 20
213.074265
 30
0.0
  0
SPLINE
  5
1bf
100
AcDbEntity
  8
Layer_1
 62
7
100
AcDbSpline
 70
8
 71
3
 72
8
 73
4
 74
0
 40
0
 40
0
 40
0
 40
0
 40
1
 40
1
 40
1
 40
1
 10
82.621953
 20
213.074265
 30
0.0
 10
82.572565
 20
212.990303
 30
0.0
 10
82.525645
 20
212.896465
 30
0.0
 10
82.481195
 20
212.792748
 30
0.0
  0
SPLINE
  5
1c0
100
AcDbEntity
  8
Layer_1
 62
7
100
AcDbSpline
 70
8
 71
3
 72
8
 73
4
 74
0
 40
0
 40
0
 40
0
 40
0
 40
1
 40
1
 40
1
 40
1
 10
82.481195
 20
212.792748
 30
0.0
 10
82.441684
 20
212.684092
 30
0.0
 10
82.399703
 20
212.565559
 30
0.0
 10
82.355253
 20
212.437148
 30
0.0
  0
SPLINE
  5
1c1
100
AcDbEntity
  8
Layer_1
 62
7
100
AcDbSpline
 70
8
 71
3
 72
8
 73
4
 74
0
 40
0
 40
0
 40
0
 40
0
 40
1
 40
1
 40
1
 40
1
 10
82.355253
 20
212.437148
 30
0.0
 10
82.256476
 20
212.170448
 30
0.0
 10
82.157698
 20
211.938320
 30
0.0
 10
82.058920
 20
211.740765
 30
0.0
  0
SPLINE
  5
1c2
100
AcDbEntity
  8
Layer_1
 62
7
100
AcDbSpline
 70
8
 71
3
 72
8
 73
4
 74
0
 40
0
 40
0
 40
0
 40
0
 40
1
 40
1
 40
1
 40
1
 10
82.058920
 20
211.740765
 30
0.0
 10
81.965081
 20
211.543209
 30
0.0
 10
81.853956
 20
211.380226
 30
0.0
 10
81.725545
 20
211.251815
 30
0.0
  0
SPLINE
  5
1c3
100
AcDbEntity
  8
Layer_1
 62
7
100
AcDbSpline
 70
8
 71
3
 72
8
 73
4
 74
0
 40
0
 40
0
 40
0
 40
0
 40
1
 40
1
 40
1
 40
1
 10
81.725545
 20
211.251815
 30
0.0
 10
81.597134
 20
211.118465
 30
0.0
 10
81.446498
 20
211.019687
 30
0.0
 10
81.273637
 20
210.955481
 30
0.0
  0
SPLINE
  5
1c4
100
AcDbEntity
  8
Layer_1
 62
7
100
AcDbSpline
 70
8
 71
3
 72
8
 73
4
 74
0
 40
0
 40
0
 40
0
 40
0
 40
1
 40
1
 40
1
 40
1
 10
81.273637
 20
210.955481
 30
0.0
 10
81.100776
 20
210.891276
 30
0.0
 10
80.890873
 20
210.859173
 30
0.0
 10
80.643928
 20
210.859173
 30
0.0
  0
SPLINE
  5
1c5
100
AcDbEntity
  8
Layer_1
 62
7
100
AcDbSpline
 70
8
 71
3
 72
8
 73
4
 74
0
 40
0
 40
0
 40
0
 40
0
 40
1
 40
1
 40
1
 40
1
 10
80.643928
 20
210.859173
 30
0.0
 10
80.164856
 20
210.859173
 30
0.0
 10
79.791970
 20
211.027095
 30
0.0
 10
79.525270
 20
211.362940
 30
0.0
  0
SPLINE
  5
1c6
100
AcDbEntity
  8
Layer_1
 62
7
100
AcDbSpline
 70
8
 71
3
 72
8
 73
4
 74
0
 40
0
 40
0
 40
0
 40
0
 40
1
 40
1
 40
1
 40
1
 10
79.525270
 20
211.362940
 30
0.0
 10
79.263509
 20
211.698784
 30
0.0
 10
79.132628
 20
212.205020
 30
0.0
 10
79.132628
 20
212.881648
 30
0.0
  0
SPLINE
  5
1c7
100
AcDbEntity
  8
Layer_1
 62
7
100
AcDbSpline
 70
8
 71
3
 72
8
 73
4
 74
0
 40
0
 40
0
 40
0
 40
0
 40
1
 40
1
 40
1
 40
1
 10
79.132628
 20
212.881648
 30
0.0
 10
79.132628
 20
213.108837
 30
0.0
 10
79.147445
 20
213.313801
 30
0.0
 10
79.177078
 20
213.496540
 30
0.0
  0
SPLINE
  5
1c8
100
AcDbEntity
  8
Layer_1
 62
7
100
AcDbSpline
 70
8
 71
3
 72
8
 73
4
 74
0
 40
0
 40
0
 40
0
 40
0
 40
1
 40
1
 40
1
 40
1
 10
79.177078
 20
213.496540
 30
0.0
 10
79.201773
 20
213.679278
 30
0.0
 10
79.233876
 20
213.842262
 30
0.0
 10
79.273387
 20
213.985490
 30
0.0
  0
SPLINE
  5
1c9
100
AcDbEntity
  8
Layer_1
 62
7
100
AcDbSpline
 70
8
 71
3
 72
8
 73
4
 74
0
 40
0
 40
0
 40
0
 40
0
 40
1
 40
1
 40
1
 40
1
 10
79.273387
 20
213.985490
 30
0.0
 10
79.312898
 20
214.123778
 30
0.0
 10
79.354878
 20
214.244781
 30
0.0
 10
79.399328
 20
214.348498
 30
0.0
  0
SPLINE
  5
1ca
100
AcDbEntity
  8
Layer_1
 62
7
100
AcDbSpline
 70
8
 71
3
 72
8
 73
4
 74
0
 40
0
 40
0
 40
0
 40
0
 40
1
 40
1
 40
1
 40
1
 10
79.399328
 20
214.348498
 30
0.0
 10
79.443778
 20
214.447276
 30
0.0
 10
79.485759
 20
214.531237
 30
0.0
 10
79.525270
 20
214.600381
 30
0.0
  0
LWPOLYLINE
  5
1cb
100
AcDbEntity
  8
Layer_1
 62
7
100
AcDbPolyline
 90
3
 70
0
 10
83.422053
 20
218.067479
 30
0.0
 10
82.029287
 20
218.067479
 30
0.0
 10
82.029287
 20
217.741512
 30
0.0
  0
SPLINE
  5
1cc
100
AcDbEntity
  8
Layer_1
 62
7
100
AcDbSpline
 70
8
 71
3
 72
8
 73
4
 74
0
 40
0
 40
0
 40
0
 40
0
 40
1
 40
1
 40
1
 40
1
 10
80.443903
 20
214.274415
 30
0.0
 10
80.359942
 20
214.121309
 30
0.0
 10
80.283390
 20
213.933631
 30
0.0
 10
80.214245
 20
213.711381
 30
0.0
  0
SPLINE
  5
1cd
100
AcDbEntity
  8
Layer_1
 62
7
100
AcDbSpline
 70
8
 71
3
 72
8
 73
4
 74
0
 40
0
 40
0
 40
0
 40
0
 40
1
 40
1
 40
1
 40
1
 10
80.214245
 20
213.711381
 30
0.0
 10
80.150040
 20
213.484192
 30
0.0
 10
80.117937
 20
213.207615
 30
0.0
 10
80.117937
 20
212.881648
 30
0.0
  0
LWPOLYLINE
  5
1ce
100
AcDbEntity
  8
Layer_1
 62
7
100
AcDbPolyline
 90
2
 70
0
 10
84.133253
 20
211.103648
 30
0.0
 10
83.222028
 20
211.437023
 30
0.0
  0
LWPOLYLINE
  5
1cf
100
AcDbEntity
  8
Layer_1
 62
7
100
AcDbPolyline
 90
2
 70
0
 10
79.525270
 20
214.600381
 30
0.0
 10
80.443903
 20
214.274415
 30
0.0
  0
LWPOLYLINE
  5
1d0
100
AcDbEntity
  8
Layer_1
 62
7
100
AcDbPolyline
 90
5
 70
1
 10
321.868006
 20
232.868014
 30
0.0
 10
321.868006
 20
175.132001
 30
0.0
 10
223.131994
 20
175.132001
 30
0.0
 10
223.131994
 20
232.868014
 30
0.0
 10
321.868006
 20
232.868014
 30
0.0
  0
LWPOLYLINE
  5
1d1
100
AcDbEntity
  8
Layer_1
 62
7
100
AcDbPolyline
 90
5
 70
1
 10
325.853637
 20
236.853623
 30
0.0
 10
325.853637
 20
171.146395
 30
0.0
 10
219.146385
 20
171.146395
 30
0.0
 10
219.146385
 20
236.853623
 30
0.0
 10
325.853637
 20
236.853623
 30
0.0
  0
ENDSEC
  0
SECTION
  2
OBJECTS
  0
DICTIONARY
  5
C
330
0
100
AcDbDictionary
  3
ACAD_GROUP
350
D
  3
ACAD_MLINESTYLE
350
17
  0
DICTIONARY
  5
D
330
C
100
AcDbDictionary
  0
DICTIONARY
  5
1A
330
C
100
AcDbDictionary
  0
DICTIONARY
  5
17
330
C
100
AcDbDictionary
  3
STANDARD
350
18
  0
DICTIONARY
  5
19
330
C
100
AcDbDictionary
  0
ENDSEC
  0
EOF
